# Blender 5.1.0
# www.blender.org
mtllib bastard_gun_patron.mtl
o bastard_gun_patron
v -0.181008 2.518646 -1.484904
v -0.176025 2.506616 -1.497676
v -0.204981 2.500856 -1.497676
v -0.204981 2.513878 -1.484904
v -0.160684 2.532226 -1.484904
v -0.151476 2.523019 -1.497676
v -0.147104 2.552550 -1.484904
v -0.135073 2.547567 -1.497676
v -0.142335 2.576524 -1.484904
v -0.129314 2.576524 -1.497676
v -0.147104 2.600498 -1.484904
v -0.135073 2.605481 -1.497676
v -0.160684 2.620822 -1.484904
v -0.151476 2.630030 -1.497676
v -0.181008 2.634402 -1.484904
v -0.176025 2.646432 -1.497676
v -0.204981 2.639170 -1.484904
v -0.204981 2.652192 -1.497676
v -0.228955 2.634402 -1.484904
v -0.233939 2.646432 -1.497676
v -0.249279 2.620822 -1.484904
v -0.258487 2.630030 -1.497676
v -0.262860 2.600498 -1.484904
v -0.274891 2.605481 -1.497676
v -0.267628 2.576524 -1.484904
v -0.280650 2.576524 -1.497676
v -0.262860 2.552550 -1.484904
v -0.274891 2.547567 -1.497676
v -0.249279 2.532226 -1.484904
v -0.258487 2.523019 -1.497676
v -0.228955 2.518646 -1.484904
v -0.233939 2.506616 -1.497676
v -0.146190 2.434589 -1.497676
v -0.141207 2.422558 -1.484904
v -0.204981 2.409873 -1.484904
v -0.204981 2.422894 -1.497676
v -0.096350 2.467891 -1.497676
v -0.087142 2.458683 -1.484904
v -0.063047 2.517732 -1.497676
v -0.051016 2.512749 -1.484904
v -0.051353 2.576524 -1.497676
v -0.038331 2.576524 -1.484904
v -0.063047 2.635315 -1.497676
v -0.051016 2.640298 -1.484904
v -0.096350 2.685156 -1.497676
v -0.087142 2.694364 -1.484904
v -0.146190 2.718459 -1.497676
v -0.141207 2.730489 -1.484904
v -0.204981 2.730153 -1.497676
v -0.204981 2.743175 -1.484904
v -0.263774 2.718459 -1.497676
v -0.268756 2.730489 -1.484904
v -0.313615 2.685156 -1.497676
v -0.322822 2.694364 -1.484904
v -0.346917 2.635315 -1.497676
v -0.358947 2.640298 -1.484904
v -0.358611 2.576524 -1.497676
v -0.371634 2.576524 -1.484904
v -0.346917 2.517732 -1.497676
v -0.358947 2.512749 -1.484904
v -0.313615 2.467891 -1.497676
v -0.322822 2.458683 -1.484904
v -0.263774 2.434589 -1.497676
v -0.268756 2.422558 -1.484904
v -0.226496 2.524584 -1.497676
v -0.228955 2.518646 -1.491372
v -0.244736 2.536771 -1.497676
v -0.249279 2.532226 -1.491372
v -0.256921 2.555010 -1.497676
v -0.262860 2.552550 -1.491372
v -0.261202 2.576524 -1.497676
v -0.267628 2.576524 -1.491372
v -0.256921 2.598038 -1.497676
v -0.262860 2.600498 -1.491372
v -0.244736 2.616277 -1.497676
v -0.249279 2.620822 -1.491372
v -0.226496 2.628464 -1.497676
v -0.228955 2.634402 -1.491372
v -0.204981 2.632743 -1.497676
v -0.204981 2.639170 -1.491372
v -0.183467 2.628464 -1.497676
v -0.181008 2.634402 -1.491372
v -0.165229 2.616277 -1.497676
v -0.160684 2.620822 -1.491372
v -0.153042 2.598038 -1.497676
v -0.147104 2.600498 -1.491372
v -0.148763 2.576524 -1.497676
v -0.142335 2.576524 -1.491372
v -0.153042 2.555010 -1.497676
v -0.147104 2.552550 -1.491372
v -0.165229 2.536771 -1.497676
v -0.160684 2.532226 -1.491372
v -0.204981 2.520305 -1.497676
v -0.204981 2.513878 -1.491372
v -0.183467 2.524584 -1.497676
v -0.181008 2.518646 -1.491372
v -0.204981 2.434701 -0.535733
v -0.150708 2.445497 -0.535733
v -0.104697 2.476240 -0.535733
v -0.073954 2.522250 -0.535733
v -0.063158 2.576524 -0.535733
v -0.073954 2.630797 -0.535733
v -0.104697 2.676808 -0.535733
v -0.150708 2.707551 -0.535733
v -0.204981 2.718347 -0.535733
v -0.259256 2.707551 -0.535733
v -0.305265 2.676808 -0.535733
v -0.336010 2.630797 -0.535733
v -0.346805 2.576524 -0.535733
v -0.336010 2.522250 -0.535733
v -0.305265 2.476240 -0.535733
v -0.259256 2.445497 -0.535733
v -0.204981 2.434701 -0.386673
v -0.204981 2.431064 -0.378062
v -0.150708 2.445497 -0.386673
v -0.149317 2.442137 -0.378062
v -0.104697 2.476240 -0.386673
v -0.102126 2.473668 -0.378062
v -0.073954 2.522250 -0.386673
v -0.070596 2.520859 -0.378062
v -0.063158 2.576524 -0.386673
v -0.059522 2.576524 -0.378062
v -0.073954 2.630797 -0.386673
v -0.070596 2.632189 -0.378062
v -0.104697 2.676808 -0.386673
v -0.102126 2.679379 -0.378062
v -0.145957 2.719022 -0.376206
v -0.150708 2.707551 -0.386673
v -0.149317 2.710911 -0.378062
v -0.204981 2.718347 -0.386673
v -0.204981 2.721983 -0.378062
v -0.264006 2.719022 -0.376206
v -0.259256 2.707551 -0.386673
v -0.260647 2.710911 -0.378062
v -0.314045 2.685587 -0.376206
v -0.305265 2.676808 -0.386673
v -0.307838 2.679379 -0.378062
v -0.347480 2.635548 -0.376206
v -0.336010 2.630797 -0.386673
v -0.339369 2.632189 -0.378062
v -0.359221 2.576524 -0.376206
v -0.346805 2.576524 -0.386673
v -0.350441 2.576524 -0.378062
v -0.347480 2.517499 -0.376206
v -0.336010 2.522250 -0.386673
v -0.339369 2.520859 -0.378062
v -0.314045 2.467461 -0.376206
v -0.305265 2.476240 -0.386673
v -0.307838 2.473668 -0.378062
v -0.264006 2.434026 -0.376206
v -0.259256 2.445497 -0.386673
v -0.260647 2.442137 -0.378062
v -0.204981 2.422288 -0.376206
v -0.204981 2.409873 -0.386673
v -0.204981 2.413509 -0.378062
v -0.141207 2.422558 -0.386673
v -0.145958 2.434029 -0.376206
v -0.142599 2.425918 -0.378062
v -0.087142 2.458683 -0.386673
v -0.095921 2.467463 -0.376206
v -0.089713 2.461255 -0.378062
v -0.051016 2.512749 -0.386673
v -0.062485 2.517500 -0.376206
v -0.054377 2.514141 -0.378062
v -0.038331 2.576524 -0.386673
v -0.050747 2.576524 -0.376206
v -0.041967 2.576524 -0.378062
v -0.051016 2.640298 -0.386673
v -0.062486 2.635547 -0.376206
v -0.054377 2.638907 -0.378062
v -0.087142 2.694364 -0.386673
v -0.095921 2.685585 -0.376206
v -0.089713 2.691793 -0.378062
v -0.141207 2.730489 -0.386673
v -0.142599 2.727130 -0.378062
v -0.204981 2.743175 -0.386673
v -0.204981 2.730759 -0.376206
v -0.204981 2.739538 -0.378062
v -0.268756 2.730489 -0.386673
v -0.267365 2.727130 -0.378062
v -0.322822 2.694364 -0.386673
v -0.320250 2.691793 -0.378062
v -0.358947 2.640298 -0.386673
v -0.355588 2.638907 -0.378062
v -0.371634 2.576524 -0.386673
v -0.367996 2.576524 -0.378062
v -0.358947 2.512749 -0.386673
v -0.355588 2.514141 -0.378062
v -0.322822 2.458683 -0.386673
v -0.320250 2.461255 -0.378062
v -0.268756 2.422558 -0.386673
v -0.267365 2.425918 -0.378062
v -0.204981 2.462273 -0.378063
v -0.204981 2.443463 -0.395416
v -0.154062 2.453591 -0.395416
v -0.161260 2.470969 -0.378063
v -0.110894 2.482435 -0.395416
v -0.124194 2.495736 -0.378063
v -0.082049 2.525604 -0.395416
v -0.099428 2.532802 -0.378063
v -0.071921 2.576524 -0.395416
v -0.090731 2.576524 -0.378063
v -0.082049 2.627444 -0.395416
v -0.099428 2.620246 -0.378063
v -0.110894 2.670612 -0.395416
v -0.124194 2.657311 -0.378063
v -0.154062 2.699456 -0.395416
v -0.161260 2.682078 -0.378063
v -0.204981 2.709584 -0.395416
v -0.204981 2.690775 -0.378063
v -0.255903 2.699456 -0.395416
v -0.248704 2.682078 -0.378063
v -0.299070 2.670612 -0.395416
v -0.285770 2.657311 -0.378063
v -0.327915 2.627444 -0.395416
v -0.310537 2.620246 -0.378063
v -0.338043 2.576524 -0.395416
v -0.319233 2.576524 -0.378063
v -0.327915 2.525604 -0.395416
v -0.310537 2.532802 -0.378063
v -0.299070 2.482435 -0.395416
v -0.285770 2.495736 -0.378063
v -0.255903 2.453591 -0.395416
v -0.248704 2.470969 -0.378063
vn 0.3827 -0.9238 -0.0113
vn 0.7071 -0.7071 0.0034
vn 0.3827 -0.9239 0.0033
vn 0.9238 -0.3826 -0.0113
vn 1.0000 -0.0000 0.0033
vn 0.9239 -0.3827 0.0034
vn 0.9238 0.3827 -0.0114
vn 0.7071 0.7071 0.0034
vn 0.9239 0.3827 0.0034
vn 0.7071 0.7071 -0.0113
vn 0.3827 0.9239 0.0034
vn 0.3826 0.9238 -0.0113
vn -0.0000 1.0000 0.0034
vn -0.0000 0.9999 -0.0113
vn -0.3827 0.9239 0.0034
vn -0.3827 0.9238 -0.0113
vn -0.7071 0.7071 0.0034
vn -0.7071 0.7070 -0.0114
vn -0.9239 0.3827 0.0033
vn -0.9238 0.3826 -0.0113
vn -1.0000 -0.0000 0.0034
vn -0.9999 -0.0000 -0.0114
vn -0.9239 -0.3827 0.0034
vn -0.9238 -0.3827 -0.0113
vn -0.7071 -0.7071 0.0034
vn -0.7071 -0.7071 -0.0114
vn -0.3827 -0.9239 0.0034
vn 0.9999 -0.0000 -0.0112
vn 0.9236 0.3826 0.0234
vn 1.0000 -0.0000 -0.0000
vn 0.9997 -0.0000 0.0233
vn 0.7071 -0.7071 -0.0113
vn -0.3826 -0.9238 -0.0113
vn -0.0000 -1.0000 0.0034
vn -0.9239 -0.3827 -0.0000
vn -0.6350 -0.6350 -0.4399
vn -0.7071 -0.7071 -0.0000
vn -0.0000 0.0895 -0.9960
vn 0.0698 -0.1686 -0.9832
vn -0.0000 -0.1825 -0.9832
vn -0.7071 0.7071 -0.0000
vn -0.8297 0.3437 -0.4399
vn -0.9239 0.3827 -0.0000
vn 0.9239 0.3827 -0.0000
vn 0.6350 0.6351 -0.4399
vn 0.7071 0.7071 -0.0000
vn -0.0000 -1.0000 -0.0000
vn 0.3437 -0.8297 -0.4398
vn 0.3827 -0.9239 -0.0000
vn -1.0000 -0.0000 -0.0000
vn -0.8297 -0.3437 -0.4399
vn 0.3827 0.9239 -0.0000
vn -0.0000 0.8981 -0.4399
vn -0.0000 1.0000 -0.0000
vn 0.7071 -0.7071 -0.0000
vn 0.8297 -0.3437 -0.4399
vn 0.9239 -0.3827 -0.0000
vn -0.3827 0.9239 -0.0000
vn -0.6351 0.6350 -0.4398
vn 0.8297 0.3437 -0.4399
vn -0.0000 0.0288 -0.9996
vn 0.0288 -0.0000 -0.9996
vn -0.0000 -0.0288 -0.9996
vn -0.8981 -0.0000 -0.4398
vn 0.0633 0.0632 -0.9960
vn -0.0698 -0.1686 -0.9832
vn -0.1291 -0.1291 -0.9832
vn 0.3437 0.8297 -0.4399
vn 0.6350 -0.6350 -0.4399
vn -0.3827 -0.9239 -0.0000
vn -0.0000 -0.8981 -0.4399
vn -0.0000 -0.0895 -0.9960
vn 0.0698 0.1686 -0.9832
vn -0.0342 -0.0827 -0.9960
vn -0.0343 0.0827 -0.9960
vn 0.1290 -0.1291 -0.9832
vn 0.0343 0.0827 -0.9960
vn 0.0342 -0.0827 -0.9960
vn -0.0000 0.1825 -0.9832
vn -0.3437 0.8297 -0.4399
vn 0.0632 -0.0633 -0.9960
vn -0.0698 0.1686 -0.9832
vn -0.0633 0.0632 -0.9960
vn 0.1686 -0.0698 -0.9832
vn 0.0826 -0.0343 -0.9960
vn -0.1291 0.1291 -0.9832
vn -0.0827 0.0342 -0.9960
vn 0.1825 -0.0000 -0.9832
vn -0.1825 -0.0000 -0.9832
vn -0.1686 0.0698 -0.9832
vn -0.0827 -0.0342 -0.9960
vn -0.0895 -0.0000 -0.9960
vn 0.0827 0.0342 -0.9960
vn 0.0895 -0.0000 -0.9960
vn 0.1290 0.1290 -0.9832
vn 0.1686 0.0698 -0.9832
vn -0.1686 -0.0698 -0.9832
vn -0.0632 -0.0633 -0.9960
vn -0.0000 -0.9999 -0.0113
vn -0.0000 0.7002 -0.7139
vn -0.2680 0.6469 -0.7139
vn -0.4951 0.4951 -0.7139
vn -0.6469 0.2680 -0.7139
vn -0.7002 -0.0000 -0.7139
vn -0.6469 -0.2680 -0.7139
vn -0.4951 -0.4951 -0.7139
vn -0.2680 -0.6470 -0.7139
vn -0.0000 -0.7002 -0.7139
vn 0.2680 -0.6469 -0.7139
vn 0.4951 -0.4951 -0.7139
vn 0.6469 -0.2680 -0.7139
vn 0.7002 -0.0000 -0.7139
vn 0.6469 0.2680 -0.7139
vn 0.4951 0.4952 -0.7139
vn 0.2680 0.6469 -0.7139
vn 0.8981 -0.0000 -0.4399
vn -0.3437 -0.8297 -0.4399
vn -0.0110 -0.0266 -0.9996
vn -0.0203 -0.0203 -0.9996
vn -0.0265 -0.0110 -0.9996
vn -0.0288 -0.0000 -0.9996
vn -0.0265 0.0110 -0.9996
vn -0.0203 0.0203 -0.9996
vn -0.0110 0.0266 -0.9996
vn 0.0110 0.0266 -0.9996
vn 0.0203 0.0203 -0.9996
vn 0.0267 0.0110 -0.9996
vn 0.0267 -0.0110 -0.9996
vn 0.0203 -0.0204 -0.9996
vn 0.0110 -0.0266 -0.9996
vn -0.0000 0.9997 0.0234
vn 0.3826 0.9236 0.0234
vn -0.9236 0.3826 0.0234
vn -0.7069 0.7069 0.0235
vn -0.9997 -0.0000 0.0234
vn -0.9236 -0.3826 0.0234
vn -0.7069 -0.7069 0.0234
vn -0.3826 -0.9236 0.0234
vn -0.0000 -0.9997 0.0234
vn 0.3826 -0.9236 0.0234
vn 0.7069 -0.7069 0.0234
vn 0.9236 -0.3826 0.0234
vn 0.7069 0.7069 0.0234
vn -0.0000 0.9981 0.0623
vn 0.3776 0.9116 0.1627
vn 0.3819 0.9221 0.0623
vn -0.3826 0.9236 0.0234
vn 0.2496 -0.6025 0.7581
vn -0.0000 -0.6522 0.7580
vn -0.0000 -0.0060 1.0000
vn 0.4612 -0.4612 0.7580
vn 0.0023 -0.0056 1.0000
vn 0.6026 -0.2496 0.7580
vn 0.0043 -0.0043 1.0000
vn 0.0060 -0.0000 1.0000
vn 0.0056 -0.0023 1.0000
vn 0.6522 -0.0000 0.7580
vn 0.0056 0.0023 1.0000
vn 0.6025 0.2496 0.7581
vn 0.0043 0.0043 1.0000
vn 0.4612 0.4612 0.7580
vn 0.0023 0.0055 1.0000
vn 0.2496 0.6026 0.7580
vn -0.0000 0.0060 1.0000
vn -0.0000 0.6522 0.7580
vn -0.0023 0.0055 1.0000
vn -0.4612 0.4612 0.7580
vn -0.2496 0.6026 0.7580
vn -0.6026 0.2496 0.7580
vn -0.0043 0.0043 1.0000
vn -0.6523 -0.0000 0.7580
vn -0.0056 0.0023 1.0000
vn -0.6026 -0.2496 0.7580
vn -0.0060 -0.0000 1.0000
vn -0.4612 -0.4612 0.7580
vn -0.0043 -0.0043 1.0000
vn -0.0056 -0.0023 1.0000
vn -0.2496 -0.6026 0.7580
vn -0.0023 -0.0055 1.0000
vn -0.2435 0.5877 0.7716
vn -0.0000 0.6361 0.7716
vn -0.4498 0.4498 0.7716
vn -0.5877 0.2434 0.7716
vn -0.6362 -0.0000 0.7715
vn -0.5878 -0.2435 0.7715
vn -0.2434 -0.5877 0.7716
vn -0.4498 -0.4498 0.7716
vn 0.2434 -0.5877 0.7716
vn -0.0000 -0.6361 0.7716
vn 0.4498 -0.4498 0.7716
vn 0.6361 -0.0000 0.7716
vn 0.5876 -0.2434 0.7717
vn 0.5876 0.2434 0.7717
vn 0.4498 0.4498 0.7716
vn 0.2434 0.5877 0.7716
vn -0.0000 -0.9981 0.0623
vn -0.3776 -0.9116 0.1627
vn -0.3819 -0.9221 0.0623
vn -0.3819 0.9221 0.0623
vn -0.0000 0.9867 0.1627
vn -0.0151 -0.0363 0.9992
vn 0.0364 -0.0150 0.9992
vn 0.0151 0.0364 0.9992
vn 0.3819 -0.9221 0.0623
vn 0.6977 -0.6977 0.1627
vn 0.3776 -0.9116 0.1627
vn -0.7057 0.7057 0.0623
vn -0.3776 0.9116 0.1627
vn 0.7057 -0.7057 0.0623
vn 0.9116 -0.3776 0.1626
vn -0.9221 0.3819 0.0623
vn -0.6977 0.6977 0.1627
vn 0.9981 -0.0000 0.0623
vn 0.9221 -0.3819 0.0623
vn -0.9981 -0.0000 0.0623
vn -0.9116 0.3776 0.1627
vn 0.9221 0.3819 0.0623
vn 0.9867 -0.0000 0.1627
vn -0.9116 -0.3776 0.1627
vn -0.9867 -0.0000 0.1627
vn 0.7057 0.7057 0.0623
vn 0.9116 0.3776 0.1627
vn -0.9221 -0.3819 0.0623
vn -0.6977 -0.6977 0.1627
vn 0.6977 0.6977 0.1627
vn -0.7057 -0.7057 0.0623
vn -0.0000 -0.9867 0.1627
vn 0.0152 -0.0364 0.9992
vn -0.0000 -0.0394 0.9992
vn 0.0278 -0.0279 0.9992
vn 0.0394 0.0001 0.9992
vn 0.0364 0.0151 0.9992
vn 0.0279 0.0278 0.9992
vn -0.0001 0.0393 0.9992
vn -0.0152 0.0364 0.9992
vn -0.0278 0.0279 0.9992
vn -0.0364 0.0151 0.9992
vn -0.0364 -0.0152 0.9992
vn -0.0394 -0.0000 0.9992
vn -0.0278 -0.0279 0.9992
vt 0.043627 0.748296
vt 0.376389 0.729331
vt 0.376389 0.748296
vt 0.043627 0.710365
vt 0.376389 0.691400
vt 0.376389 0.710365
vt 0.043627 0.975878
vt 0.376389 0.956913
vt 0.376389 0.975878
vt 0.043627 0.956913
vt 0.376389 0.937948
vt 0.043627 0.937948
vt 0.376389 0.918983
vt 0.043627 0.918983
vt 0.376389 0.900018
vt 0.043627 0.900018
vt 0.376389 0.881052
vt 0.043627 0.881052
vt 0.376389 0.862087
vt 0.043627 0.862087
vt 0.376389 0.843122
vt 0.043627 0.843122
vt 0.376389 0.824157
vt 0.043627 0.824157
vt 0.376389 0.805192
vt 0.043627 0.805192
vt 0.376389 0.786226
vt 0.043627 0.994844
vt 0.376389 0.994844
vt 0.387491 0.824157
vt 0.432656 0.843122
vt 0.387491 0.843122
vt 0.043627 0.729331
vt 0.043627 0.786226
vt 0.376389 0.767261
vt 0.008952 0.824157
vt 0.006992 0.805192
vt 0.008952 0.805192
vt 0.014479 0.767261
vt 0.038101 0.748296
vt 0.038101 0.767261
vt 0.008952 0.881052
vt 0.006992 0.862087
vt 0.008952 0.862087
vt 0.008952 0.975878
vt 0.006992 0.956913
vt 0.008952 0.956913
vt 0.008952 0.767261
vt 0.006992 0.748296
vt 0.008952 0.748296
vt 0.008952 0.843122
vt 0.006992 0.824157
vt 0.008952 0.937948
vt 0.006992 0.918983
vt 0.008952 0.918983
vt 0.008952 0.729331
vt 0.006992 0.710365
vt 0.008952 0.710365
vt 0.008952 0.900018
vt 0.006992 0.881052
vt 0.008952 0.994844
vt 0.006992 0.975878
vt 0.778792 0.905198
vt 0.749920 0.948408
vt 0.706711 0.919536
vt 0.006992 0.843122
vt 0.014479 0.805192
vt 0.038101 0.786226
vt 0.038101 0.805192
vt 0.006992 0.937948
vt 0.006992 0.729331
vt 0.008952 0.786226
vt 0.006992 0.767261
vt 0.014479 0.918983
vt 0.038101 0.937948
vt 0.014479 0.937948
vt 0.014479 0.748296
vt 0.038101 0.729331
vt 0.014479 0.786226
vt 0.014479 0.900018
vt 0.038101 0.918983
vt 0.006992 0.900018
vt 0.014479 0.881052
vt 0.038101 0.900018
vt 0.014479 0.729331
vt 0.038101 0.710365
vt 0.014479 0.862087
vt 0.038101 0.881052
vt 0.014479 0.710365
vt 0.038101 0.691400
vt 0.038101 0.843122
vt 0.038101 0.862087
vt 0.014479 0.975878
vt 0.038101 0.994844
vt 0.014479 0.994844
vt 0.014479 0.824157
vt 0.014479 0.843122
vt 0.038101 0.956913
vt 0.038101 0.975878
vt 0.038101 0.824157
vt 0.014479 0.956913
vt 0.043627 0.691400
vt 0.043627 0.767261
vt 0.014479 0.691400
vt 0.008952 0.691400
vt 0.006992 0.691400
vt 0.004265 0.767261
vt 0.006992 0.786226
vt 0.004265 0.786226
vt 0.004265 0.805192
vt 0.004265 0.824157
vt 0.004265 0.843122
vt 0.004265 0.862087
vt 0.004265 0.881052
vt 0.004265 0.900018
vt 0.004265 0.918983
vt 0.004265 0.937948
vt 0.004265 0.956913
vt 0.004265 0.975878
vt 0.006992 0.994844
vt 0.004265 0.994844
vt 0.004265 0.710365
vt 0.004265 0.729331
vt 0.004265 0.748296
vt 0.387491 0.767261
vt 0.432656 0.786226
vt 0.387491 0.786226
vt 0.387491 0.710365
vt 0.432656 0.729331
vt 0.387491 0.729331
vt 0.387491 0.691400
vt 0.432656 0.710365
vt 0.387491 0.975878
vt 0.432656 0.994844
vt 0.387491 0.994844
vt 0.387491 0.956913
vt 0.432656 0.975878
vt 0.387491 0.937948
vt 0.432656 0.956913
vt 0.387491 0.918983
vt 0.432656 0.937948
vt 0.387491 0.900018
vt 0.432656 0.918983
vt 0.387491 0.881052
vt 0.432656 0.900018
vt 0.387491 0.862087
vt 0.432656 0.881052
vt 0.432656 0.862087
vt 0.387491 0.805192
vt 0.432656 0.824157
vt 0.432656 0.805192
vt 0.475255 0.937948
vt 0.432656 0.748296
vt 0.387491 0.748296
vt 0.379221 0.748296
vt 0.379221 0.767261
vt 0.381940 0.767261
vt 0.379221 0.729331
vt 0.381940 0.748296
vt 0.379221 0.710365
vt 0.381940 0.729331
vt 0.381940 0.691400
vt 0.381940 0.710365
vt 0.379221 0.994844
vt 0.381940 0.975878
vt 0.381940 0.994844
vt 0.379221 0.975878
vt 0.381940 0.956913
vt 0.379221 0.956913
vt 0.381940 0.937948
vt 0.379221 0.937948
vt 0.381940 0.918983
vt 0.379221 0.918983
vt 0.381940 0.900018
vt 0.379221 0.881052
vt 0.379221 0.900018
vt 0.379221 0.862087
vt 0.381940 0.881052
vt 0.379221 0.843122
vt 0.381940 0.862087
vt 0.379221 0.824157
vt 0.381940 0.843122
vt 0.379221 0.805192
vt 0.381940 0.805192
vt 0.381940 0.824157
vt 0.379221 0.786226
vt 0.381940 0.786226
vt 0.384658 0.748296
vt 0.384658 0.767261
vt 0.384658 0.729331
vt 0.384658 0.710365
vt 0.384658 0.994844
vt 0.384658 0.975878
vt 0.384658 0.937948
vt 0.384658 0.956913
vt 0.384658 0.900018
vt 0.384658 0.918983
vt 0.384658 0.881052
vt 0.384658 0.843122
vt 0.384658 0.862087
vt 0.384658 0.824157
vt 0.384658 0.805192
vt 0.384658 0.786226
vt 0.432656 0.767261
vt 0.475255 0.786226
vt 0.475255 0.918983
vt 0.695181 0.926277
vt 0.607369 0.984951
vt 0.548695 0.897139
vt 0.475255 0.729331
vt 0.475255 0.748296
vt 0.475255 0.900018
vt 0.475255 0.710365
vt 0.475255 0.881052
vt 0.432656 0.691400
vt 0.475255 0.862087
vt 0.475255 0.994844
vt 0.475255 0.824157
vt 0.475255 0.843122
vt 0.475255 0.975878
vt 0.475255 0.805192
vt 0.475255 0.956913
vt 0.475255 0.767261
vt 0.483009 0.748296
vt 0.483009 0.767261
vt 0.483009 0.729331
vt 0.483009 0.691400
vt 0.483009 0.710365
vt 0.483009 0.994844
vt 0.483009 0.975878
vt 0.483009 0.937948
vt 0.483009 0.956913
vt 0.483009 0.918983
vt 0.483009 0.900018
vt 0.483009 0.881052
vt 0.483009 0.862087
vt 0.483009 0.824157
vt 0.483009 0.843122
vt 0.483009 0.805192
vt 0.483009 0.786226
vt 0.706711 0.905198
vt 0.712198 0.891953
vt 0.722336 0.881814
vt 0.735583 0.876327
vt 0.749920 0.876327
vt 0.763167 0.881814
vt 0.773305 0.891953
vt 0.778792 0.919536
vt 0.773305 0.932783
vt 0.763167 0.942921
vt 0.735583 0.948408
vt 0.722336 0.942921
vt 0.712198 0.932783
vt 0.004265 0.691400
vt 0.379221 0.691400
vt 0.384658 0.691400
vt 0.684030 0.953196
vt 0.663427 0.973801
vt 0.636507 0.984951
vt 0.580449 0.973801
vt 0.559845 0.953196
vt 0.548695 0.926277
vt 0.559845 0.870220
vt 0.580449 0.849617
vt 0.607369 0.838466
vt 0.636507 0.838465
vt 0.663427 0.849617
vt 0.684031 0.870220
vt 0.695181 0.897140
vt 0.475255 0.691400
s 1
usemtl magazin_patron.001
f 34/1/1 159/2/2 156/3/3
f 40/4/4 165/5/5 162/6/6
f 44/7/7 171/8/8 168/9/9
f 46/10/10 174/11/11 171/8/8
f 48/12/12 176/13/13 174/11/11
f 50/14/14 179/15/15 176/13/13
f 52/16/16 181/17/17 179/15/15
f 54/18/18 183/19/19 181/17/17
f 56/20/20 185/21/21 183/19/19
f 58/22/22 187/23/23 185/21/21
f 60/24/24 189/25/25 187/23/23
f 62/26/26 191/27/27 189/25/25
f 42/28/28 168/9/9 165/29/5
f 145/30/29 109/31/30 142/32/31
f 38/33/32 162/6/6 159/2/2
f 64/34/33 154/35/34 191/27/27
f 27/36/35 68/37/36 29/38/37
f 3/39/38 33/40/39 36/41/40
f 21/42/41 74/43/42 23/44/43
f 11/45/44 84/46/45 13/47/46
f 4/48/47 96/49/48 1/50/49
f 25/51/50 70/52/51 27/36/35
f 15/53/52 80/54/53 17/55/54
f 5/56/55 90/57/56 7/58/57
f 19/59/58 76/60/59 21/42/41
f 9/61/30 86/62/60 11/45/44
f 79/63/61 87/64/62 93/65/63
f 23/44/43 72/66/64 25/51/50
f 30/67/65 63/68/66 61/69/67
f 13/47/46 82/70/68 15/53/52
f 1/50/49 92/71/69 5/56/55
f 31/72/70 94/73/71 4/48/47
f 18/74/72 47/75/73 16/76/74
f 2/77/75 37/78/76 33/40/39
f 3/39/38 63/68/66 32/79/77
f 20/80/78 49/81/79 18/74/72
f 17/55/54 78/82/80 19/59/58
f 22/83/81 51/84/82 20/80/78
f 6/85/83 39/86/84 37/78/76
f 24/87/85 53/88/86 22/83/81
f 8/89/87 41/90/88 39/86/84
f 24/87/85 57/91/89 55/92/90
f 12/93/91 41/94/88 10/95/92
f 28/96/93 57/91/89 26/97/94
f 12/93/91 45/98/95 43/99/96
f 28/96/93 61/69/67 59/100/97
f 14/101/98 47/75/73 45/98/95
f 34/1/1 36/41/40 33/40/39
f 38/33/32 33/40/39 37/78/76
f 38/33/32 39/86/84 40/4/4
f 40/4/4 41/90/88 42/102/28
f 44/7/7 41/94/88 43/99/96
f 46/10/10 43/99/96 45/98/95
f 48/12/12 45/98/95 47/75/73
f 48/12/12 49/81/79 50/14/14
f 52/16/16 49/81/79 51/84/82
f 54/18/18 51/84/82 53/88/86
f 56/20/20 53/88/86 55/92/90
f 56/20/20 57/91/89 58/22/22
f 60/24/24 57/91/89 59/100/97
f 60/24/24 61/69/67 62/26/26
f 62/26/26 63/68/66 64/34/33
f 64/34/33 36/41/40 35/103/99
f 2/77/75 4/48/100 1/50/101
f 2/77/75 5/56/102 6/85/83
f 6/85/83 7/58/103 8/89/87
f 10/104/92 7/58/103 9/105/104
f 10/95/92 11/45/105 12/93/91
f 14/101/98 11/45/105 13/47/106
f 16/76/74 13/47/106 15/53/107
f 16/76/74 17/55/108 18/74/72
f 18/74/72 19/59/109 20/80/78
f 20/80/78 21/42/110 22/83/81
f 22/83/81 23/44/111 24/87/85
f 26/97/94 23/44/111 25/51/112
f 26/97/94 27/36/113 28/96/93
f 30/67/65 27/36/113 29/38/114
f 32/79/77 29/38/114 31/72/115
f 3/39/38 31/72/115 4/48/100
f 7/58/57 88/106/116 9/105/30
f 93/107/63 66/108/117 65/109/118
f 65/109/118 68/37/36 67/110/119
f 67/110/119 70/52/51 69/111/120
f 69/111/120 72/66/64 71/112/121
f 73/113/122 72/66/64 74/43/42
f 75/114/123 74/43/42 76/60/59
f 77/115/124 76/60/59 78/82/80
f 79/116/61 78/82/80 80/54/53
f 79/116/61 82/70/68 81/117/125
f 81/117/125 84/46/45 83/118/126
f 83/118/126 86/62/60 85/119/127
f 85/119/127 88/120/116 87/121/62
f 89/122/128 88/106/116 90/57/56
f 91/123/129 90/57/56 92/71/69
f 95/124/130 92/71/69 96/49/48
f 93/107/63 96/49/48 94/73/71
f 29/38/37 66/108/117 31/72/70
f 113/125/131 112/126/52 151/127/132
f 119/128/133 99/129/41 117/130/134
f 121/131/135 100/132/43 119/128/133
f 123/133/136 101/134/50 121/135/135
f 125/136/137 102/137/35 123/133/136
f 128/138/138 103/139/37 125/136/137
f 130/140/139 104/141/70 128/138/138
f 133/142/140 105/143/47 130/140/139
f 136/144/141 106/145/49 133/142/140
f 139/146/142 107/147/55 136/144/141
f 142/32/31 108/148/57 139/146/142
f 148/149/143 110/150/44 145/30/29
f 151/127/132 111/151/46 148/149/143
f 35/103/99 156/3/3 154/35/34
f 105/143/144 207/152/145 104/141/146
f 117/130/134 98/153/58 115/154/147
f 154/35/34 158/155/148 155/156/149
f 158/155/148 153/157/150 155/156/149
f 159/2/2 158/155/148 156/3/3
f 161/158/151 157/159/152 158/155/148
f 162/6/6 161/158/151 159/2/2
f 164/160/153 160/161/154 161/158/151
f 165/5/5 164/160/153 162/6/6
f 164/160/153 166/162/155 163/163/156
f 168/9/9 167/164/157 165/29/5
f 167/164/157 169/165/158 166/166/155
f 171/8/8 170/167/159 168/9/9
f 170/167/159 172/168/160 169/165/158
f 174/11/11 173/169/161 171/8/8
f 173/169/161 127/170/162 172/168/160
f 176/13/13 175/171/163 174/11/11
f 175/171/163 177/172/164 127/170/162
f 179/15/15 178/173/165 176/13/13
f 178/173/165 132/174/166 177/172/164
f 179/15/15 182/175/167 180/176/168
f 182/175/167 132/174/166 180/176/168
f 181/17/17 184/177/169 182/175/167
f 184/177/169 135/178/170 182/175/167
f 183/19/19 186/179/171 184/177/169
f 186/179/171 138/180/172 184/177/169
f 185/21/21 188/181/173 186/179/171
f 188/181/173 141/182/174 186/179/171
f 187/23/23 190/183/175 188/181/173
f 188/181/173 147/184/176 144/185/177
f 189/25/25 192/186/178 190/183/175
f 190/183/175 150/187/179 147/184/176
f 191/27/27 155/156/149 192/186/178
f 155/156/149 150/187/179 192/186/178
f 153/157/150 116/188/180 114/189/181
f 116/188/180 113/125/131 114/189/181
f 157/159/152 118/190/182 116/188/180
f 118/190/182 115/154/147 116/188/180
f 160/161/154 120/191/183 118/190/182
f 120/191/183 117/130/134 118/190/182
f 166/162/155 120/191/183 163/163/156
f 120/191/183 121/131/135 119/128/133
f 169/165/158 122/192/184 166/166/155
f 122/192/184 123/133/136 121/135/135
f 172/168/160 124/193/185 169/165/158
f 124/193/185 125/136/137 123/133/136
f 172/168/160 129/194/186 126/195/187
f 126/195/187 128/138/138 125/136/137
f 177/172/164 129/194/186 127/170/162
f 129/194/186 130/140/139 128/138/138
f 177/172/164 134/196/188 131/197/189
f 134/196/188 130/140/139 131/197/189
f 135/178/170 134/196/188 132/174/166
f 134/196/188 136/144/141 133/142/140
f 138/180/172 137/198/190 135/178/170
f 137/198/190 139/146/142 136/144/141
f 138/180/172 143/199/191 140/200/192
f 143/199/191 139/146/142 140/200/192
f 141/182/174 146/201/193 143/199/191
f 146/201/193 142/32/31 143/199/191
f 144/185/177 149/202/194 146/201/193
f 149/202/194 145/30/29 146/201/193
f 147/184/176 152/203/195 149/202/194
f 152/203/195 148/149/143 149/202/194
f 153/157/150 152/203/195 150/187/179
f 152/203/195 113/125/131 151/127/132
f 115/154/147 97/204/54 113/125/131
f 97/204/196 223/205/197 112/126/198
f 106/145/199 209/206/200 105/143/144
f 224/207/201 200/208/202 208/209/203
f 98/153/204 197/210/205 195/211/206
f 107/147/207 211/212/208 106/145/199
f 99/129/209 199/213/210 197/210/205
f 108/148/211 213/214/212 107/147/207
f 101/215/213 199/213/210 100/132/214
f 109/31/215 215/216/216 108/148/211
f 102/137/217 201/217/218 101/134/213
f 109/31/215 219/218/219 217/219/220
f 103/139/221 203/220/222 102/137/217
f 110/150/223 221/221/224 219/218/219
f 104/141/146 205/222/225 103/139/221
f 112/126/198 221/221/224 111/151/226
f 194/223/227 196/224/228 193/225/229
f 197/210/205 196/224/228 195/211/206
f 199/213/210 198/226/230 197/210/205
f 199/213/210 202/227/231 200/228/202
f 203/220/222 202/229/231 201/217/218
f 205/222/225 204/230/232 203/220/222
f 205/222/225 208/231/203 206/232/233
f 207/152/145 210/233/234 208/231/203
f 209/206/200 212/234/235 210/233/234
f 213/214/212 212/234/235 211/212/208
f 215/216/216 214/235/236 213/214/212
f 217/219/220 216/236/237 215/216/216
f 217/219/220 220/237/238 218/238/239
f 219/218/219 222/239/240 220/237/238
f 221/221/224 224/240/201 222/239/240
f 194/223/227 224/240/201 223/205/197
f 97/204/196 195/211/206 194/223/227
f 34/1/1 38/33/32 159/2/2
f 40/4/4 42/102/28 165/5/5
f 44/7/7 46/10/10 171/8/8
f 46/10/10 48/12/12 174/11/11
f 48/12/12 50/14/14 176/13/13
f 50/14/14 52/16/16 179/15/15
f 52/16/16 54/18/18 181/17/17
f 54/18/18 56/20/20 183/19/19
f 56/20/20 58/22/22 185/21/21
f 58/22/22 60/24/24 187/23/23
f 60/24/24 62/26/26 189/25/25
f 62/26/26 64/34/33 191/27/27
f 42/28/28 44/7/7 168/9/9
f 145/30/29 110/150/44 109/31/30
f 38/33/32 40/4/4 162/6/6
f 64/34/33 35/103/99 154/35/34
f 27/36/35 70/52/51 68/37/36
f 3/39/38 2/77/75 33/40/39
f 21/42/41 76/60/59 74/43/42
f 11/45/44 86/62/60 84/46/45
f 4/48/47 94/73/71 96/49/48
f 25/51/50 72/66/64 70/52/51
f 15/53/52 82/70/68 80/54/53
f 5/56/55 92/71/69 90/57/56
f 19/59/58 78/82/80 76/60/59
f 9/61/30 88/120/116 86/62/60
f 93/65/63 65/241/118 67/242/119
f 67/242/119 69/243/120 93/65/63
f 69/243/120 71/244/121 93/65/63
f 71/244/121 73/245/122 79/63/61
f 73/245/122 75/246/123 79/63/61
f 75/246/123 77/247/124 79/63/61
f 79/63/61 81/248/125 83/249/126
f 83/249/126 85/250/127 87/64/62
f 87/64/62 89/251/128 91/252/129
f 91/252/129 95/253/130 93/65/63
f 79/63/61 83/249/126 87/64/62
f 87/64/62 91/252/129 93/65/63
f 93/65/63 71/244/121 79/63/61
f 23/44/43 74/43/42 72/66/64
f 30/67/65 32/79/77 63/68/66
f 13/47/46 84/46/45 82/70/68
f 1/50/49 96/49/48 92/71/69
f 31/72/70 66/108/117 94/73/71
f 18/74/72 49/81/79 47/75/73
f 2/77/75 6/85/83 37/78/76
f 3/39/38 36/41/40 63/68/66
f 20/80/78 51/84/82 49/81/79
f 17/55/54 80/54/53 78/82/80
f 22/83/81 53/88/86 51/84/82
f 6/85/83 8/89/87 39/86/84
f 24/87/85 55/92/90 53/88/86
f 8/89/87 10/104/92 41/90/88
f 24/87/85 26/97/94 57/91/89
f 12/93/91 43/99/96 41/94/88
f 28/96/93 59/100/97 57/91/89
f 12/93/91 14/101/98 45/98/95
f 28/96/93 30/67/65 61/69/67
f 14/101/98 16/76/74 47/75/73
f 34/1/1 35/103/99 36/41/40
f 38/33/32 34/1/1 33/40/39
f 38/33/32 37/78/76 39/86/84
f 40/4/4 39/86/84 41/90/88
f 44/7/7 42/28/28 41/94/88
f 46/10/10 44/7/7 43/99/96
f 48/12/12 46/10/10 45/98/95
f 48/12/12 47/75/73 49/81/79
f 52/16/16 50/14/14 49/81/79
f 54/18/18 52/16/16 51/84/82
f 56/20/20 54/18/18 53/88/86
f 56/20/20 55/92/90 57/91/89
f 60/24/24 58/22/22 57/91/89
f 60/24/24 59/100/97 61/69/67
f 62/26/26 61/69/67 63/68/66
f 64/34/33 63/68/66 36/41/40
f 2/77/75 3/39/38 4/48/100
f 2/77/75 1/50/101 5/56/102
f 6/85/83 5/56/102 7/58/103
f 10/104/92 8/89/87 7/58/103
f 10/95/92 9/61/104 11/45/105
f 14/101/98 12/93/91 11/45/105
f 16/76/74 14/101/98 13/47/106
f 16/76/74 15/53/107 17/55/108
f 18/74/72 17/55/108 19/59/109
f 20/80/78 19/59/109 21/42/110
f 22/83/81 21/42/110 23/44/111
f 26/97/94 24/87/85 23/44/111
f 26/97/94 25/51/112 27/36/113
f 30/67/65 28/96/93 27/36/113
f 32/79/77 30/67/65 29/38/114
f 3/39/38 32/79/77 31/72/115
f 7/58/57 90/57/56 88/106/116
f 93/107/63 94/73/71 66/108/117
f 65/109/118 66/108/117 68/37/36
f 67/110/119 68/37/36 70/52/51
f 69/111/120 70/52/51 72/66/64
f 73/113/122 71/112/121 72/66/64
f 75/114/123 73/113/122 74/43/42
f 77/115/124 75/114/123 76/60/59
f 79/116/61 77/115/124 78/82/80
f 79/116/61 80/54/53 82/70/68
f 81/117/125 82/70/68 84/46/45
f 83/118/126 84/46/45 86/62/60
f 85/119/127 86/62/60 88/120/116
f 89/122/128 87/254/62 88/106/116
f 91/123/129 89/122/128 90/57/56
f 95/124/130 91/123/129 92/71/69
f 93/107/63 95/124/130 96/49/48
f 29/38/37 68/37/36 66/108/117
f 113/125/131 97/204/54 112/126/52
f 119/128/133 100/132/43 99/129/41
f 121/131/135 101/215/50 100/132/43
f 123/133/136 102/137/35 101/134/50
f 125/136/137 103/139/37 102/137/35
f 128/138/138 104/141/70 103/139/37
f 130/140/139 105/143/47 104/141/70
f 133/142/140 106/145/49 105/143/47
f 136/144/141 107/147/55 106/145/49
f 139/146/142 108/148/57 107/147/55
f 142/32/31 109/31/30 108/148/57
f 148/149/143 111/151/46 110/150/44
f 151/127/132 112/126/52 111/151/46
f 35/103/99 34/1/1 156/3/3
f 105/143/144 209/206/200 207/152/145
f 117/130/134 99/129/41 98/153/58
f 154/35/34 156/3/3 158/155/148
f 158/155/148 157/159/152 153/157/150
f 159/2/2 161/158/151 158/155/148
f 161/158/151 160/161/154 157/159/152
f 162/6/6 164/160/153 161/158/151
f 164/160/153 163/163/156 160/161/154
f 165/5/5 167/255/157 164/160/153
f 164/160/153 167/255/157 166/162/155
f 168/9/9 170/167/159 167/164/157
f 167/164/157 170/167/159 169/165/158
f 171/8/8 173/169/161 170/167/159
f 170/167/159 173/169/161 172/168/160
f 174/11/11 175/171/163 173/169/161
f 173/169/161 175/171/163 127/170/162
f 176/13/13 178/173/165 175/171/163
f 175/171/163 178/173/165 177/172/164
f 179/15/15 180/176/168 178/173/165
f 178/173/165 180/176/168 132/174/166
f 179/15/15 181/17/17 182/175/167
f 182/175/167 135/178/170 132/174/166
f 181/17/17 183/19/19 184/177/169
f 184/177/169 138/180/172 135/178/170
f 183/19/19 185/21/21 186/179/171
f 186/179/171 141/182/174 138/180/172
f 185/21/21 187/23/23 188/181/173
f 188/181/173 144/185/177 141/182/174
f 187/23/23 189/25/25 190/183/175
f 188/181/173 190/183/175 147/184/176
f 189/25/25 191/27/27 192/186/178
f 190/183/175 192/186/178 150/187/179
f 191/27/27 154/35/34 155/156/149
f 155/156/149 153/157/150 150/187/179
f 153/157/150 157/159/152 116/188/180
f 116/188/180 115/154/147 113/125/131
f 157/159/152 160/161/154 118/190/182
f 118/190/182 117/130/134 115/154/147
f 160/161/154 163/163/156 120/191/183
f 120/191/183 119/128/133 117/130/134
f 166/162/155 122/256/184 120/191/183
f 120/191/183 122/256/184 121/131/135
f 169/165/158 124/193/185 122/192/184
f 122/192/184 124/193/185 123/133/136
f 172/168/160 126/195/187 124/193/185
f 124/193/185 126/195/187 125/136/137
f 172/168/160 127/170/162 129/194/186
f 126/195/187 129/194/186 128/138/138
f 177/172/164 131/197/189 129/194/186
f 129/194/186 131/197/189 130/140/139
f 177/172/164 132/174/166 134/196/188
f 134/196/188 133/142/140 130/140/139
f 135/178/170 137/198/190 134/196/188
f 134/196/188 137/198/190 136/144/141
f 138/180/172 140/200/192 137/198/190
f 137/198/190 140/200/192 139/146/142
f 138/180/172 141/182/174 143/199/191
f 143/199/191 142/32/31 139/146/142
f 141/182/174 144/185/177 146/201/193
f 146/201/193 145/30/29 142/32/31
f 144/185/177 147/184/176 149/202/194
f 149/202/194 148/149/143 145/30/29
f 147/184/176 150/187/179 152/203/195
f 152/203/195 151/127/132 148/149/143
f 153/157/150 114/189/181 152/203/195
f 152/203/195 114/189/181 113/125/131
f 115/154/147 98/153/58 97/204/54
f 97/204/196 194/223/227 223/205/197
f 106/145/199 211/212/208 209/206/200
f 224/207/201 193/257/229 200/208/202
f 193/257/229 196/258/228 200/208/202
f 196/258/228 198/259/230 200/208/202
f 200/208/202 202/260/231 204/261/232
f 204/261/232 206/262/233 200/208/202
f 206/262/233 208/209/203 200/208/202
f 208/209/203 210/263/234 212/264/235
f 212/264/235 214/265/236 216/266/237
f 216/266/237 218/267/239 224/207/201
f 218/267/239 220/268/238 224/207/201
f 220/268/238 222/269/240 224/207/201
f 208/209/203 212/264/235 224/207/201
f 212/264/235 216/266/237 224/207/201
f 98/153/204 99/129/209 197/210/205
f 107/147/207 213/214/212 211/212/208
f 99/129/209 100/132/214 199/213/210
f 108/148/211 215/216/216 213/214/212
f 101/215/213 201/270/218 199/213/210
f 109/31/215 217/219/220 215/216/216
f 102/137/217 203/220/222 201/217/218
f 109/31/215 110/150/223 219/218/219
f 103/139/221 205/222/225 203/220/222
f 110/150/223 111/151/226 221/221/224
f 104/141/146 207/152/145 205/222/225
f 112/126/198 223/205/197 221/221/224
f 194/223/227 195/211/206 196/224/228
f 197/210/205 198/226/230 196/224/228
f 199/213/210 200/228/202 198/226/230
f 199/213/210 201/270/218 202/227/231
f 203/220/222 204/230/232 202/229/231
f 205/222/225 206/232/233 204/230/232
f 205/222/225 207/152/145 208/231/203
f 207/152/145 209/206/200 210/233/234
f 209/206/200 211/212/208 212/234/235
f 213/214/212 214/235/236 212/234/235
f 215/216/216 216/236/237 214/235/236
f 217/219/220 218/238/239 216/236/237
f 217/219/220 219/218/219 220/237/238
f 219/218/219 221/221/224 222/239/240
f 221/221/224 223/205/197 224/240/201
f 194/223/227 193/225/229 224/240/201
f 97/204/196 98/153/204 195/211/206
