# Blender 5.1.0
# www.blender.org
mtllib bastard_gun_magazin.mtl
o bastard_gun_magazin
v 4.954627 2.367633 -1.392778
v -0.170200 2.367633 -1.392778
v 4.954627 2.383551 -1.392778
v -0.170200 2.383084 -1.392778
v -0.170200 2.418519 -1.508185
v 4.954627 2.418519 -1.508185
v -0.170200 2.418519 -1.523636
v 4.954627 2.418519 -1.523636
v -0.170200 2.393463 -1.496070
v -0.170200 2.383084 -1.466823
v -0.170200 2.382051 -1.505995
v -0.170200 2.367633 -1.466821
v 4.954627 2.393463 -1.496070
v 4.954627 2.383551 -1.466822
v 4.954627 2.382051 -1.505995
v 4.954627 2.367633 -1.466821
v -0.143886 2.470874 -1.508185
v -0.170200 2.449445 -1.508185
v -0.162493 2.464597 -1.508185
v 4.954627 2.449445 -1.508185
v 4.928312 2.470874 -1.508185
v 4.946919 2.464597 -1.508185
v -0.170200 2.449445 -1.523636
v -0.143886 2.470874 -1.523636
v -0.162493 2.464597 -1.523636
v 4.928312 2.470874 -1.523636
v 4.954627 2.449445 -1.523636
v 4.946919 2.464597 -1.523636
v 4.954627 2.367633 -0.480383
v -0.170200 2.367633 -0.480383
v 4.954627 2.383551 -0.480383
v -0.170200 2.383084 -0.480383
v -0.170200 2.418519 -0.364976
v 4.954627 2.418519 -0.364976
v -0.170200 2.418519 -0.349525
v 4.954627 2.418519 -0.349525
v -0.170200 2.393463 -0.377091
v -0.170200 2.383084 -0.406338
v -0.170200 2.382051 -0.367166
v -0.170200 2.367633 -0.406340
v 4.954627 2.393463 -0.377091
v 4.954627 2.383551 -0.406339
v 4.954627 2.382051 -0.367166
v 4.954627 2.367633 -0.406340
v -0.143886 2.470874 -0.364976
v -0.170200 2.449445 -0.364976
v -0.162493 2.464597 -0.364976
v 4.954627 2.449445 -0.364976
v 4.928312 2.470874 -0.364976
v 4.946919 2.464597 -0.364976
v -0.170200 2.449445 -0.349525
v -0.143886 2.470874 -0.349525
v -0.162493 2.464597 -0.349525
v 4.928312 2.470874 -0.349525
v 4.954627 2.449445 -0.349525
v 4.946919 2.464597 -0.349525
v 4.954627 3.044350 -1.392778
v -0.170200 3.044350 -1.392778
v 4.954627 3.028432 -1.392778
v -0.170200 3.028900 -1.392778
v -0.170200 2.993465 -1.508185
v 4.954627 2.993465 -1.508185
v -0.170200 2.993465 -1.523636
v 4.954627 2.993465 -1.523636
v -0.170200 3.018521 -1.496070
v -0.170200 3.028900 -1.466823
v -0.170200 3.029932 -1.505995
v -0.170200 3.044350 -1.466821
v 4.954627 3.018521 -1.496070
v 4.954627 3.028432 -1.466822
v 4.954627 3.029932 -1.505995
v 4.954627 3.044351 -1.466821
v -0.143886 2.941109 -1.508185
v -0.170200 2.962539 -1.508185
v -0.162493 2.947386 -1.508185
v 4.954627 2.962539 -1.508185
v 4.928312 2.941109 -1.508185
v 4.946919 2.947386 -1.508185
v -0.170200 2.962539 -1.523636
v -0.143886 2.941109 -1.523636
v -0.162493 2.947386 -1.523636
v 4.928312 2.941109 -1.523636
v 4.954627 2.962539 -1.523636
v 4.946919 2.947386 -1.523636
v 4.954627 3.044350 -0.480383
v -0.170200 3.044350 -0.480383
v 4.954627 3.028432 -0.480383
v -0.170200 3.028900 -0.480383
v -0.170200 2.993465 -0.364976
v 4.954627 2.993465 -0.364976
v -0.170200 2.993465 -0.349525
v 4.954627 2.993465 -0.349525
v -0.170200 3.018521 -0.377091
v -0.170200 3.028900 -0.406338
v -0.170200 3.029932 -0.367166
v -0.170200 3.044350 -0.406340
v 4.954627 3.018521 -0.377091
v 4.954627 3.028432 -0.406339
v 4.954627 3.029932 -0.367166
v 4.954627 3.044351 -0.406340
v -0.143886 2.941109 -0.364976
v -0.170200 2.962539 -0.364976
v -0.162493 2.947386 -0.364976
v 4.954627 2.962539 -0.364976
v 4.928312 2.941109 -0.364976
v 4.946919 2.947386 -0.364976
v -0.170200 2.962539 -0.349525
v -0.143886 2.941109 -0.349525
v -0.162493 2.947386 -0.349525
v 4.928312 2.941109 -0.349525
v 4.954627 2.962539 -0.349525
v 4.946919 2.947386 -0.349525
v 5.166073 2.906627 -1.317621
v 5.166073 2.894180 -1.354521
v 5.166073 2.902982 -1.337382
v 5.166073 2.815172 -1.451538
v 5.166073 2.785122 -1.466822
v 5.166073 2.801215 -1.462345
v 5.198915 2.785122 -1.466822
v 5.198915 2.815172 -1.451538
v 5.198915 2.801215 -1.462345
v 5.198915 2.894180 -1.354521
v 5.198915 2.906627 -1.317621
v 5.198915 2.902982 -1.337382
v -0.426662 2.549373 -1.466822
v -0.315080 2.359140 -1.466822
v -0.396764 2.425661 -1.466822
v -0.393821 2.549373 -1.466822
v -0.372487 2.455127 -1.466822
v -0.290802 2.387697 -1.466822
v -0.426662 2.861403 -1.466822
v -0.170655 3.075986 -1.466822
v -0.396764 2.985116 -1.466822
v -0.315080 3.051637 -1.466822
v -0.170655 3.043144 -1.466822
v -0.393821 2.861404 -1.466822
v -0.290802 3.023080 -1.466822
v -0.372487 2.955649 -1.466822
v 5.133231 2.762540 -1.466822
v 5.133342 2.646577 -1.324427
v 5.133245 2.704558 -1.447745
v 5.133286 2.662113 -1.395624
v 5.166184 2.646577 -1.324427
v 5.166072 2.762540 -1.466822
v 5.166129 2.662113 -1.395624
v 5.166088 2.704558 -1.447745
v 5.166072 2.816668 -1.466822
v 5.041091 3.054609 -1.466822
v 5.122699 2.986309 -1.466822
v 5.133231 2.816668 -1.466822
v 4.910274 3.043144 -1.466822
v 5.097115 2.958989 -1.466822
v 5.015507 3.027288 -1.466822
v 5.040939 3.054523 -1.203699
v 5.122746 2.985985 -1.203699
v 4.909860 3.043144 -1.203698
v 5.097175 2.958666 -1.203698
v 5.015366 3.027201 -1.203698
v 5.198915 2.540704 -1.466822
v 5.047182 2.350466 -1.466822
v 5.126924 2.395102 -1.466822
v 5.180206 2.461905 -1.466822
v 5.166073 2.540704 -1.466822
v 5.151752 2.482134 -1.466822
v 5.104901 2.419473 -1.466822
v 5.035547 2.381391 -1.466822
v 0.040367 3.043144 -1.466822
v 0.040367 3.075986 -1.160157
v 0.053120 3.075986 -1.190945
v 0.083908 3.043144 -1.203698
v 0.040367 3.043144 -1.160157
v 0.053120 3.043144 -1.190945
v 5.133479 2.874304 -1.160158
v 5.118196 2.909763 -1.203698
v 5.118195 2.909763 -1.466822
v 5.128986 2.884690 -1.190946
v 5.152398 2.909763 -1.203699
v 5.166193 2.874305 -1.160158
v 5.152398 2.909763 -1.466822
v 5.162152 2.884690 -1.190946
v 4.910275 3.075986 -1.466822
v 0.040367 3.075986 -1.466822
v 4.833003 3.075986 -1.413562
v 4.875810 3.075986 -1.370668
v 4.863308 3.075986 -1.400999
v 4.875669 3.075986 -1.299852
v 4.832689 3.075986 -1.256959
v 4.909851 3.075986 -1.203700
v 4.863045 3.075986 -1.269522
v 0.074690 3.075986 -1.370668
v 0.117583 3.075986 -1.413562
v 0.087253 3.075986 -1.400999
v 0.117583 3.075986 -1.256959
v 0.074690 3.075986 -1.299852
v 0.083908 3.075986 -1.203698
v 0.087253 3.075986 -1.269522
v 4.875810 3.059949 -1.370668
v 4.833003 3.059949 -1.413562
v 4.863308 3.059949 -1.400999
v 0.117583 3.059949 -1.413562
v 0.074690 3.059949 -1.370668
v 0.087253 3.059949 -1.400999
v 4.832689 3.059949 -1.256959
v 4.875669 3.059949 -1.299852
v 4.863045 3.059949 -1.269522
v 0.074690 3.059949 -1.299852
v 0.117583 3.059949 -1.256959
v 0.087253 3.059949 -1.269522
v 5.198916 2.839279 -1.195527
v 5.216598 2.814053 -1.195527
v 5.198916 2.829628 -1.231543
v 5.216598 2.807782 -1.218930
v 5.198916 2.803263 -1.257908
v 5.216598 2.790650 -1.236062
v 5.198916 2.767247 -1.267558
v 5.216598 2.767247 -1.242332
v 5.198916 2.731232 -1.257908
v 5.216598 2.743845 -1.236062
v 5.198916 2.704867 -1.231543
v 5.216598 2.726713 -1.218930
v 5.198916 2.695216 -1.195527
v 5.216598 2.720442 -1.195527
v 5.198916 2.704867 -1.159512
v 5.216598 2.726713 -1.172124
v 5.198916 2.731232 -1.133146
v 5.216598 2.743845 -1.154992
v 5.198916 2.767247 -1.123496
v 5.216598 2.767247 -1.148721
v 5.198916 2.803263 -1.133146
v 5.216598 2.790650 -1.154992
v 5.198916 2.829628 -1.159511
v 5.216598 2.807782 -1.172124
v 0.074690 3.043144 -1.466822
v 0.074690 3.075986 -1.466822
v 0.087253 3.043144 -1.466822
v 0.087253 3.075986 -1.466822
v 0.117583 3.043144 -1.466822
v 0.117583 3.075986 -1.466822
v 4.875669 3.075986 -1.203700
v 4.863045 3.075986 -1.203700
v 4.832689 3.075986 -1.203700
v 4.832689 3.043144 -1.203698
v 4.863045 3.043144 -1.203698
v 4.875669 3.043144 -1.203698
v 4.875811 3.075986 -1.466822
v 4.863308 3.075986 -1.466822
v 4.833003 3.075986 -1.466822
v 4.875810 3.043144 -1.466822
v 4.863308 3.043144 -1.466822
v 4.833003 3.043144 -1.466822
v 5.128985 2.884691 -1.466822
v 5.162152 2.884690 -1.466822
v 5.040990 3.054551 -1.299851
v 5.041040 3.054580 -1.370668
v 5.122730 2.986093 -1.299851
v 5.122715 2.986201 -1.370668
v 5.152398 2.909763 -1.370668
v 5.152398 2.909763 -1.299851
v 5.166113 2.816668 -1.375663
v 5.166152 2.816668 -1.304847
v 4.910133 3.075986 -1.370669
v 4.909992 3.075986 -1.299852
v 5.162152 2.884690 -1.299852
v 5.162152 2.884690 -1.370669
v -0.315080 2.359140 -1.299851
v -0.315080 2.359140 -1.370669
v -0.396764 2.425661 -1.299851
v -0.396764 2.425661 -1.370669
v -0.426662 2.549373 -1.299851
v -0.426662 2.549373 -1.370669
v -0.170655 3.075986 -1.299851
v -0.170655 3.075986 -1.370669
v -0.315080 3.051637 -1.370669
v -0.315080 3.051637 -1.299851
v -0.396764 2.985116 -1.370669
v -0.396764 2.985116 -1.299851
v -0.426662 2.861403 -1.370669
v -0.426662 2.861403 -1.299851
v 0.040367 3.075986 -1.370668
v 0.040367 3.075986 -1.299852
v 5.166184 2.646577 -1.160158
v 5.166168 2.816668 -1.160158
v 5.133342 2.646577 -1.160157
v 5.166164 2.816668 -1.190946
v 5.166184 2.646577 -1.190946
v 5.133342 2.646577 -1.190945
v 5.166073 2.906627 -0.555540
v 5.166073 2.894180 -0.518640
v 5.166073 2.902982 -0.535779
v 5.166073 2.815172 -0.421623
v 5.166073 2.785122 -0.406339
v 5.166073 2.801215 -0.410816
v 5.198915 2.785122 -0.406339
v 5.198915 2.815172 -0.421623
v 5.198915 2.801215 -0.410816
v 5.198915 2.894180 -0.518640
v 5.198915 2.906627 -0.555540
v 5.198915 2.902982 -0.535779
v -0.426662 2.549373 -0.406339
v -0.315080 2.359140 -0.406339
v -0.396764 2.425661 -0.406339
v -0.393821 2.549373 -0.406339
v -0.372487 2.455127 -0.406339
v -0.290802 2.387697 -0.406339
v -0.426662 2.861403 -0.406339
v -0.170655 3.075986 -0.406339
v -0.396764 2.985116 -0.406339
v -0.315080 3.051637 -0.406339
v -0.170655 3.043144 -0.406339
v -0.393821 2.861404 -0.406339
v -0.290802 3.023080 -0.406339
v -0.372487 2.955649 -0.406339
v 5.133231 2.762540 -0.406339
v 5.133342 2.646577 -0.548734
v 5.133245 2.704558 -0.425416
v 5.133286 2.662113 -0.477537
v 5.166184 2.646577 -0.548734
v 5.166072 2.762540 -0.406339
v 5.166129 2.662113 -0.477537
v 5.166088 2.704558 -0.425416
v 5.166072 2.816668 -0.406339
v 5.041091 3.054609 -0.406339
v 5.122699 2.986309 -0.406339
v 5.133231 2.816668 -0.406339
v 4.910274 3.043144 -0.406339
v 5.097115 2.958989 -0.406339
v 5.015507 3.027288 -0.406339
v 5.040939 3.054523 -0.669462
v 5.122746 2.985985 -0.669463
v 4.909860 3.043144 -0.669463
v 5.097175 2.958666 -0.669463
v 5.015366 3.027201 -0.669463
v 5.198915 2.540704 -0.406339
v 5.047182 2.350466 -0.406339
v 5.126924 2.395102 -0.406339
v 5.180206 2.461905 -0.406339
v 5.166073 2.540704 -0.406339
v 5.151752 2.482134 -0.406339
v 5.104901 2.419473 -0.406339
v 5.035547 2.381391 -0.406339
v 0.040367 3.043144 -0.406339
v 0.040367 3.075986 -0.713004
v 0.053120 3.075986 -0.682215
v 0.083908 3.043144 -0.669463
v 0.040367 3.043144 -0.713004
v 0.053120 3.043144 -0.682216
v 5.133479 2.874304 -0.713003
v 5.118196 2.909763 -0.669463
v 5.118195 2.909763 -0.406339
v 5.128986 2.884690 -0.682215
v 5.152398 2.909763 -0.669463
v 5.166193 2.874305 -0.713003
v 5.152398 2.909763 -0.406339
v 5.162152 2.884690 -0.682215
v 4.910275 3.075986 -0.406339
v 0.040367 3.075986 -0.406339
v 4.833003 3.075986 -0.459599
v 4.875810 3.075986 -0.502493
v 4.863308 3.075986 -0.472162
v 4.875669 3.075986 -0.573309
v 4.832689 3.075986 -0.616202
v 4.909851 3.075986 -0.669462
v 4.863045 3.075986 -0.603639
v 0.074690 3.075986 -0.502493
v 0.117583 3.075986 -0.459599
v 0.087253 3.075986 -0.472162
v 0.117583 3.075986 -0.616202
v 0.074690 3.075986 -0.573309
v 0.083908 3.075986 -0.669463
v 0.087253 3.075986 -0.603639
v 4.875810 3.059949 -0.502493
v 4.833003 3.059949 -0.459599
v 4.863308 3.059949 -0.472162
v 0.117583 3.059949 -0.459599
v 0.074690 3.059949 -0.502493
v 0.087253 3.059949 -0.472162
v 4.832689 3.059949 -0.616202
v 4.875669 3.059949 -0.573309
v 4.863045 3.059949 -0.603639
v 0.074690 3.059949 -0.573309
v 0.117583 3.059949 -0.616202
v 0.087253 3.059949 -0.603639
v 5.198916 2.839279 -0.677634
v 5.216598 2.814053 -0.677634
v 5.198916 2.829628 -0.641618
v 5.216598 2.807782 -0.654231
v 5.198916 2.803263 -0.615253
v 5.216598 2.790650 -0.637100
v 5.198916 2.767247 -0.605603
v 5.216598 2.767247 -0.630829
v 5.198916 2.731232 -0.615253
v 5.216598 2.743845 -0.637100
v 5.198916 2.704867 -0.641618
v 5.216598 2.726713 -0.654231
v 5.198916 2.695216 -0.677634
v 5.216598 2.720442 -0.677634
v 5.198916 2.704867 -0.713650
v 5.216598 2.726713 -0.701037
v 5.198916 2.731232 -0.740015
v 5.216598 2.743845 -0.718169
v 5.198916 2.767247 -0.749665
v 5.216598 2.767247 -0.724440
v 5.198916 2.803263 -0.740015
v 5.216598 2.790650 -0.718169
v 5.198916 2.829628 -0.713650
v 5.216598 2.807782 -0.701037
v 0.074690 3.043144 -0.406339
v 0.074690 3.075986 -0.406339
v 0.087253 3.043144 -0.406339
v 0.087253 3.075986 -0.406339
v 0.117583 3.043144 -0.406339
v 0.117583 3.075986 -0.406339
v 4.875669 3.075986 -0.669462
v 4.863045 3.075986 -0.669462
v 4.832689 3.075986 -0.669462
v 4.832689 3.043144 -0.669463
v 4.863045 3.043144 -0.669463
v 4.875669 3.043144 -0.669463
v 4.875811 3.075986 -0.406339
v 4.863308 3.075986 -0.406339
v 4.833003 3.075986 -0.406339
v 4.875810 3.043144 -0.406339
v 4.863308 3.043144 -0.406339
v 4.833003 3.043144 -0.406339
v 5.128985 2.884691 -0.406339
v 5.162152 2.884690 -0.406339
v 5.040990 3.054551 -0.573310
v 5.041040 3.054580 -0.502493
v 5.122730 2.986093 -0.573310
v 5.122715 2.986201 -0.502493
v 5.152398 2.909763 -0.502493
v 5.152398 2.909763 -0.573310
v 5.166113 2.816668 -0.497498
v 5.166152 2.816668 -0.568314
v 4.910133 3.075986 -0.502492
v 4.909992 3.075986 -0.573310
v 5.162152 2.884690 -0.573309
v 5.162152 2.884690 -0.502492
v -0.315080 2.359140 -0.573310
v -0.315080 2.359140 -0.502492
v -0.396764 2.425661 -0.573310
v -0.396764 2.425661 -0.502492
v -0.426662 2.549373 -0.573310
v -0.426662 2.549373 -0.502492
v -0.170655 3.075986 -0.573310
v -0.170655 3.075986 -0.502492
v -0.315080 3.051637 -0.502492
v -0.315080 3.051637 -0.573310
v -0.396764 2.985116 -0.502492
v -0.396764 2.985116 -0.573310
v -0.426662 2.861403 -0.502492
v -0.426662 2.861403 -0.573310
v 0.040367 3.075986 -0.502492
v 0.040367 3.075986 -0.573309
v 5.166184 2.646577 -0.713003
v 5.166168 2.816668 -0.713003
v 5.133342 2.646577 -0.713004
v 5.166164 2.816668 -0.682215
v 5.166184 2.646577 -0.682215
v 5.133342 2.646577 -0.682216
v -0.170655 2.334791 -1.466822
v -0.170655 2.367633 -1.466822
v 4.953120 2.367633 -1.466822
v -0.170655 2.334791 -1.269063
v -0.170655 2.334791 -1.179971
v -0.170655 2.334791 -0.406339
v -0.170655 2.367633 -0.406339
v 4.953120 2.367633 -0.406339
v -0.170655 2.334791 -0.693190
v -0.170655 2.334791 -0.604098
v 0.204785 2.334791 -1.111565
v 0.084823 2.334791 -0.991603
v 0.119959 2.334791 -1.076429
v 0.084823 2.367633 -0.991603
v 0.204785 2.367633 -1.111565
v 0.014785 2.367633 -1.208957
v 0.119959 2.367633 -1.076429
v 4.697642 2.334791 -0.991603
v 4.577680 2.334791 -1.111565
v 4.953120 2.334791 -1.466822
v 4.662506 2.334791 -1.076429
v 4.577680 2.367633 -1.111565
v 4.697642 2.367633 -0.991603
v 4.767680 2.367633 -1.208957
v 4.662506 2.367633 -1.076429
v 0.084823 2.334791 -0.881558
v 0.204785 2.334791 -0.761596
v 0.119959 2.334791 -0.796732
v 0.204785 2.367633 -0.761596
v 0.084823 2.367633 -0.881558
v 0.014785 2.367633 -0.664204
v 0.119959 2.367633 -0.796732
v 4.577680 2.334791 -0.761596
v 4.697642 2.334791 -0.881558
v 4.953120 2.334791 -0.406339
v 4.662506 2.334791 -0.796732
v 4.697642 2.367633 -0.881558
v 4.577680 2.367633 -0.761596
v 4.767680 2.367633 -0.664204
v 4.662506 2.367633 -0.796732
vn -0.0000 -0.0000 1.0000
vn -0.0000 -0.0000 -1.0000
vn 1.0000 -0.0000 -0.0000
vn 0.9950 0.0996 -0.0000
vn -1.0000 -0.0000 -0.0000
vn -0.9950 0.0996 -0.0000
vn -0.0000 0.6652 0.7466
vn -0.0001 0.8414 0.5404
vn -0.0000 -0.0001 -1.0000
vn -0.0000 -0.6487 -0.7610
vn 0.0001 1.0000 -0.0000
vn -0.0001 1.0000 -0.0000
vn -0.0000 1.0000 -0.0000
vn -0.0001 1.0000 0.0001
vn -0.0000 -1.0000 -0.0000
vn -0.0000 -0.8268 -0.5625
vn 0.0001 -1.0000 -0.0000
vn 0.5250 0.8511 -0.0000
vn 0.7322 0.6811 -0.0000
vn 0.9697 0.2442 -0.0000
vn -0.5250 0.8511 -0.0000
vn -0.7322 0.6811 -0.0000
vn -0.9698 0.2441 -0.0000
vn 0.0001 -0.0001 1.0000
vn 0.9950 0.0996 0.0001
vn -0.0000 0.6652 -0.7466
vn -0.0000 0.8414 -0.5404
vn -0.0000 -0.6487 0.7610
vn -0.0000 -0.0001 1.0000
vn -0.0000 1.0000 0.0001
vn -0.0001 1.0000 -0.0001
vn -0.0001 -0.8268 0.5625
vn 0.5250 0.8511 -0.0001
vn -0.0000 1.0000 -0.0001
vn -0.9697 0.2441 -0.0000
vn -0.7322 0.6811 -0.0001
vn -0.0000 0.0001 -1.0000
vn 0.9950 -0.0996 -0.0001
vn -0.9950 -0.0996 -0.0000
vn -0.0000 -0.6652 0.7466
vn -0.0000 -0.8414 0.5404
vn -0.0000 0.6487 -0.7610
vn -0.0001 -1.0000 -0.0000
vn -0.0000 -1.0000 -0.0001
vn -0.0001 -1.0000 0.0001
vn 0.0001 0.8268 -0.5625
vn 0.5250 -0.8511 -0.0000
vn -0.0000 -1.0000 0.0001
vn 0.9697 -0.2442 -0.0000
vn 0.7323 -0.6810 -0.0000
vn -0.5250 -0.8511 -0.0000
vn -0.9698 -0.2441 -0.0000
vn -0.7323 -0.6810 -0.0000
vn 0.9950 -0.0996 -0.0000
vn -0.0000 -0.6652 -0.7466
vn -0.0000 -0.8414 -0.5404
vn -0.0001 0.0001 1.0000
vn -0.0000 0.6487 0.7610
vn -0.0000 0.0001 1.0000
vn -0.0001 -1.0000 -0.0001
vn -0.0000 0.8268 0.5625
vn 0.7322 -0.6811 -0.0000
vn -0.9697 -0.2441 -0.0000
vn -0.0000 0.9620 -0.2732
vn -0.0000 0.9306 -0.3659
vn -0.0000 0.8054 -0.5927
vn -0.0000 0.0172 -0.9999
vn -0.0000 0.3937 -0.9193
vn -0.0000 0.5100 -0.8602
vn -0.0000 0.7428 -0.6695
vn -0.0000 0.7847 -0.6199
vn -0.0000 0.7659 -0.6430
vn 1.0000 -0.0002 -0.0001
vn 1.0000 -0.0004 -0.0000
vn 1.0000 -0.0002 0.0001
vn -0.8709 0.4914 -0.0000
vn -0.9943 0.1063 -0.0000
vn -0.9995 0.0306 -0.0000
vn -0.0000 -0.2189 -0.9758
vn -0.0000 -0.4951 -0.8688
vn -0.0000 -0.1140 -0.9935
vn 0.0001 -0.6534 -0.7570
vn -0.0000 -0.8679 -0.4968
vn 0.0001 -0.9354 -0.3535
vn -0.0000 -0.9971 -0.0757
vn -0.9186 -0.3951 -0.0000
vn -0.9774 -0.2116 -0.0000
vn -0.9998 -0.0196 -0.0057
vn 0.0001 -0.0000 -1.0000
vn 0.1312 0.9914 0.0003
vn 0.3893 0.9211 0.0005
vn 0.3892 0.9212 0.0006
vn 0.7848 0.6197 0.0006
vn 0.9322 0.3619 0.0001
vn 0.8006 0.5992 0.0006
vn 0.9321 0.3623 -0.0000
vn -0.7101 -0.7041 -0.0005
vn -0.4109 -0.9117 -0.0005
vn -0.4107 -0.9118 -0.0005
vn -0.1286 -0.9917 -0.0003
vn 0.7785 -0.6276 -0.0000
vn 0.4795 -0.8775 -0.0000
vn 0.3169 -0.9485 -0.0000
vn -0.0000 0.1390 0.9903
vn -0.0000 0.1699 0.9855
vn -0.1663 -0.9861 -0.0000
vn -0.0769 -0.9970 -0.0000
vn 0.9320 0.3625 -0.0000
vn 0.9876 0.1570 -0.0000
vn 0.9320 0.3624 -0.0000
vn 0.9996 -0.0000 0.0267
vn 0.7972 -0.0000 0.6038
vn 0.9996 -0.0001 0.0267
vn 0.6038 -0.0000 0.7972
vn -0.0000 0.9998 0.0219
vn -0.0000 0.8505 0.5259
vn -0.0000 0.6789 0.7342
vn -0.9926 -0.0000 0.1213
vn -0.9921 -0.0000 -0.1252
vn 0.9924 -0.0000 -0.1233
vn 0.9924 -0.0000 0.1233
vn 0.1069 0.9943 0.0001
vn -0.6044 -0.0001 0.7967
vn -0.7979 0.0001 0.6027
vn -0.6032 -0.0000 -0.7976
vn -0.0001 -0.0000 -1.0000
vn -0.7964 -0.0000 -0.6048
vn 0.6038 -0.0001 -0.7972
vn 0.7971 0.0001 -0.6038
vn 0.6038 -0.0000 0.7971
vn 0.0001 0.0001 1.0000
vn 0.8896 0.4567 -0.0000
vn 0.8183 0.5156 -0.2542
vn 0.8189 0.5740 -0.0000
vn 0.8504 0.4222 -0.3140
vn 0.8183 0.3194 -0.4779
vn 0.9921 0.0498 -0.1152
vn 0.8189 -0.0000 -0.5740
vn 0.9075 -0.1665 -0.3857
vn 0.8183 -0.3194 -0.4779
vn 0.8504 -0.4222 -0.3140
vn 0.8183 -0.5156 -0.2542
vn 0.9863 -0.1650 -0.0000
vn 0.8189 -0.5740 -0.0000
vn 0.8183 -0.5156 0.2542
vn 0.9455 -0.2614 0.1944
vn 0.8183 -0.3194 0.4779
vn 0.9075 -0.1665 0.3857
vn 0.8189 -0.0000 0.5740
vn 0.9921 0.0498 0.1152
vn 0.8183 0.3194 0.4779
vn 0.9455 0.2613 0.1944
vn 0.8183 0.5156 0.2542
vn -0.0000 0.9999 -0.0113
vn -0.0000 0.9992 -0.0411
vn -0.9977 -0.0685 -0.0000
vn -0.9994 -0.0334 -0.0000
vn -0.3850 0.9229 -0.0000
vn -0.7990 0.6014 -0.0000
vn -0.0590 0.9983 -0.0000
vn -0.2969 0.9549 -0.0000
vn 0.3169 0.9485 -0.0000
vn 0.4795 0.8775 -0.0000
vn -0.1663 0.9861 -0.0000
vn -0.9220 0.3871 -0.0000
vn -0.8622 0.5065 -0.0000
vn -0.0684 0.9977 -0.0000
vn -0.5991 0.8007 -0.0000
vn -0.3767 0.9263 -0.0000
vn -0.2697 0.9629 -0.0000
vn -1.0000 -0.0001 -0.0000
vn 1.0000 0.0001 -0.0000
vn -1.0000 0.0001 -0.0000
vn -0.9117 0.4109 -0.0000
vn 0.8994 0.4370 -0.0000
vn -0.9117 -0.4109 -0.0000
vn -0.7990 -0.6014 -0.0000
vn -0.0911 -0.9958 -0.0001
vn -0.9189 -0.3946 -0.0001
vn -0.8026 -0.5965 -0.0005
vn 0.9939 0.1099 -0.0002
vn 0.9999 0.0169 -0.0005
vn 0.9995 0.0320 -0.0004
vn 0.9883 0.1524 -0.0001
vn 0.9999 0.0144 -0.0002
vn 0.8429 0.5381 0.0005
vn 0.3890 0.9212 0.0005
vn 0.7414 0.6710 0.0005
vn 0.3889 0.9213 0.0005
vn 0.1429 0.9897 0.0003
vn 0.1257 0.9921 0.0003
vn 1.0000 0.0002 -0.0003
vn 1.0000 0.0002 -0.0007
vn 1.0000 0.0002 -0.0006
vn 1.0000 0.0001 -0.0005
vn -0.9997 -0.0246 -0.0093
vn -0.9999 -0.0139 -0.0059
vn -0.9999 -0.0060 -0.0124
vn -1.0000 -0.0000 0.0007
vn -0.3022 -0.9533 -0.0000
vn -0.3729 -0.9279 -0.0000
vn -0.8709 -0.4914 -0.0000
vn 0.8994 -0.4371 -0.0000
vn -0.7079 0.7064 -0.0000
vn 0.7785 0.6276 -0.0000
vn 0.9996 -0.0000 -0.0267
vn 0.9998 0.0208 -0.0049
vn -0.9998 -0.0177 -0.0010
vn -0.9998 -0.0183 -0.0000
vn -1.0000 0.0006 -0.0000
vn -0.0000 0.9620 0.2732
vn -0.0000 0.8054 0.5927
vn -0.0000 0.9306 0.3659
vn -0.0000 0.3937 0.9193
vn -0.0000 0.0172 0.9999
vn -0.0000 0.7428 0.6695
vn -0.0000 0.5100 0.8602
vn -0.0000 0.7659 0.6430
vn -0.0000 0.7847 0.6199
vn -0.0000 -0.4951 0.8688
vn -0.0000 -0.2189 0.9758
vn -0.0000 -0.1140 0.9935
vn -0.0000 -0.8679 0.4968
vn -0.0000 -0.6534 0.7570
vn -0.0000 -0.9971 0.0757
vn -0.0000 -0.9354 0.3535
vn -0.9998 -0.0196 0.0057
vn 0.0001 -0.0000 1.0000
vn 0.1312 0.9914 -0.0003
vn 0.3893 0.9211 -0.0005
vn 0.1069 0.9943 -0.0002
vn 0.7848 0.6197 -0.0005
vn 0.3892 0.9212 -0.0006
vn 0.8006 0.5992 -0.0006
vn 0.9322 0.3619 -0.0001
vn -0.7101 -0.7041 0.0006
vn -0.4109 -0.9117 0.0005
vn -0.8026 -0.5965 0.0005
vn -0.1286 -0.9917 0.0002
vn -0.4107 -0.9118 0.0005
vn -0.0000 0.1390 -0.9903
vn 0.7972 -0.0000 -0.6038
vn 0.9996 0.0001 -0.0267
vn 0.6038 -0.0000 -0.7972
vn -0.0000 0.8505 -0.5259
vn -0.0000 0.6789 -0.7342
vn -0.9921 -0.0000 0.1252
vn -0.9926 -0.0000 -0.1213
vn -0.6044 -0.0000 -0.7967
vn -0.7979 -0.0000 -0.6027
vn -0.6032 -0.0000 0.7976
vn -0.0001 -0.0000 1.0000
vn -0.7964 -0.0000 0.6048
vn 0.7971 -0.0000 0.6038
vn 0.6038 -0.0000 -0.7971
vn 0.8189 0.4971 0.2870
vn 0.9706 0.2407 -0.0001
vn 0.9828 0.0924 0.1601
vn 0.8720 0.4239 0.2448
vn 0.8183 0.0377 0.5736
vn 0.8189 0.2870 0.4971
vn 0.8183 -0.2542 0.5156
vn 0.8504 -0.0609 0.5226
vn 0.8189 -0.4971 0.2870
vn 0.9858 -0.1002 0.1347
vn 0.8896 -0.4567 -0.0000
vn 0.8720 -0.4239 0.2448
vn 0.9455 -0.2613 -0.1944
vn 0.9941 -0.0429 -0.0994
vn 0.9075 0.1665 -0.3857
vn 0.8720 -0.0000 -0.4895
vn 0.9455 0.2613 -0.1944
vn -0.0912 -0.9958 0.0001
vn -0.9189 -0.3946 0.0001
vn 0.9939 0.1100 0.0001
vn 0.9999 0.0168 0.0005
vn 0.9883 0.1524 0.0001
vn 0.9999 0.0144 0.0002
vn 0.8429 0.5381 -0.0004
vn 0.7414 0.6710 -0.0006
vn 0.3890 0.9212 -0.0005
vn 0.3889 0.9213 -0.0005
vn 0.1429 0.9897 -0.0001
vn 0.1257 0.9921 -0.0003
vn 1.0000 0.0002 0.0003
vn 1.0000 0.0002 0.0007
vn 1.0000 0.0002 0.0006
vn 1.0000 0.0001 0.0005
vn 0.9995 0.0320 0.0004
vn -0.9997 -0.0246 0.0093
vn -0.9999 -0.0139 0.0059
vn -0.9999 -0.0060 0.0124
vn 0.2729 -0.9620 -0.0000
vn 0.5915 -0.8063 -0.0000
vn 0.3824 -0.9240 -0.0000
vn 0.8614 -0.5080 -0.0000
vn 0.6913 -0.7226 -0.0000
vn 1.0000 -0.0001 -0.0000
vn 0.9271 -0.3748 -0.0000
vn 0.9998 0.0208 0.0049
vn 0.9911 0.1315 0.0189
vn -0.9998 -0.0177 0.0011
vn 0.9841 -0.0000 -0.1774
vn 0.9841 -0.0000 0.1774
vn 0.9841 -0.0000 0.1775
vn -0.9841 -0.0000 0.1774
vn -0.9841 -0.0000 -0.1774
vn -0.7972 -0.0000 -0.6038
vn -0.6038 -0.0000 -0.7972
vn -0.6038 -0.0001 0.7972
vn -0.7972 -0.0000 0.6038
vn 0.9911 0.1315 -0.0189
vn -0.0000 0.9998 0.0217
vn 0.9712 -0.0000 -0.2384
vn 0.8720 -0.0000 0.4895
vn -0.0000 0.1699 -0.9855
vn -1.0000 -0.0000 -0.0007
vt 0.507846 0.922858
vt 0.503808 0.691376
vt 0.507846 0.691434
vt 0.892684 0.428524
vt 0.891804 0.431130
vt 0.889682 0.432210
vt 0.951282 0.031858
vt 0.948844 0.036594
vt 0.948844 0.031858
vt 0.948844 0.829230
vt 0.951282 0.824495
vt 0.951282 0.829230
vt 0.876275 0.842410
vt 0.869331 0.444590
vt 0.876275 0.444535
vt 0.885350 0.432210
vt 0.877980 0.009934
vt 0.885350 0.009883
vt 0.951282 0.026626
vt 0.951282 0.834463
vt 0.948844 0.834463
vt 0.948844 0.042204
vt 0.951282 0.818885
vt 0.948844 0.818885
vt 0.890163 0.842470
vt 0.883218 0.444614
vt 0.890163 0.444595
vt 0.863237 0.010004
vt 0.870609 0.432311
vt 0.863237 0.432331
vt 0.877980 0.432261
vt 0.870609 0.009984
vt 0.883218 0.842489
vt 0.951282 0.039197
vt 0.951282 0.042204
vt 0.948844 0.039197
vt 0.951282 0.036594
vt 0.948844 0.821892
vt 0.951282 0.821892
vt 0.948844 0.824495
vt 0.862423 0.448062
vt 0.863251 0.445607
vt 0.865250 0.444590
vt 0.948844 0.851367
vt 0.951282 0.840029
vt 0.951282 0.851367
vt 0.951282 0.021060
vt 0.948844 0.009722
vt 0.951282 0.009722
vt 0.948844 0.026626
vt 0.948844 0.021060
vt 0.486946 0.922801
vt 0.490985 0.691366
vt 0.490985 0.922766
vt 0.855034 0.432300
vt 0.862391 0.428669
vt 0.859364 0.432331
vt 0.941285 0.824497
vt 0.943651 0.829232
vt 0.941285 0.829232
vt 0.943651 0.036667
vt 0.941285 0.031931
vt 0.943651 0.031931
vt 0.771432 0.833300
vt 0.778372 0.435681
vt 0.778372 0.833383
vt 0.847667 0.432230
vt 0.855034 0.010148
vt 0.943651 0.834464
vt 0.943651 0.026699
vt 0.943651 0.042276
vt 0.941285 0.818887
vt 0.941285 0.042276
vt 0.785313 0.833330
vt 0.792255 0.435649
vt 0.792255 0.833351
vt 0.840300 0.010009
vt 0.832932 0.432139
vt 0.832932 0.009987
vt 0.840300 0.432161
vt 0.847667 0.010078
vt 0.785313 0.435628
vt 0.943651 0.821894
vt 0.943651 0.818887
vt 0.943651 0.824497
vt 0.941285 0.821894
vt 0.941285 0.039269
vt 0.941285 0.036667
vt 0.943651 0.039269
vt 0.771432 0.435598
vt 0.764502 0.439019
vt 0.767353 0.435569
vt 0.941285 0.009797
vt 0.943651 0.021134
vt 0.941285 0.021134
vt 0.941285 0.026699
vt 0.941285 0.851367
vt 0.943651 0.840030
vt 0.943651 0.851367
vt 0.941285 0.834464
vt 0.495320 0.922801
vt 0.499359 0.691366
vt 0.499359 0.922766
vt 0.824728 0.432300
vt 0.832085 0.428669
vt 0.829058 0.432331
vt 0.937597 0.824497
vt 0.939963 0.829232
vt 0.937597 0.829232
vt 0.939963 0.036644
vt 0.937597 0.031909
vt 0.939963 0.031909
vt 0.803758 0.833300
vt 0.810698 0.435681
vt 0.810698 0.833383
vt 0.817361 0.432230
vt 0.824728 0.010148
vt 0.939963 0.834464
vt 0.939963 0.026677
vt 0.939963 0.042254
vt 0.937597 0.818887
vt 0.937597 0.042254
vt 0.817638 0.833330
vt 0.824580 0.435649
vt 0.824580 0.833351
vt 0.809994 0.010009
vt 0.802626 0.432139
vt 0.802626 0.009987
vt 0.809994 0.432161
vt 0.817361 0.010078
vt 0.817638 0.435628
vt 0.939963 0.821894
vt 0.939963 0.818887
vt 0.939963 0.824497
vt 0.937597 0.821894
vt 0.937597 0.039247
vt 0.937597 0.036644
vt 0.939963 0.039247
vt 0.803758 0.435598
vt 0.796827 0.439019
vt 0.799679 0.435569
vt 0.937597 0.009774
vt 0.939963 0.021111
vt 0.937597 0.021111
vt 0.937597 0.026677
vt 0.937597 0.851367
vt 0.939963 0.840030
vt 0.939963 0.851367
vt 0.937597 0.834464
vt 0.515547 0.922858
vt 0.511509 0.691376
vt 0.515547 0.691434
vt 0.858503 0.854168
vt 0.857624 0.856775
vt 0.855501 0.857854
vt 0.947373 0.031842
vt 0.944935 0.036613
vt 0.944935 0.031874
vt 0.944935 0.829230
vt 0.947373 0.824494
vt 0.947373 0.829230
vt 0.908764 0.842410
vt 0.901821 0.444590
vt 0.908764 0.444535
vt 0.851170 0.857854
vt 0.843799 0.435578
vt 0.851170 0.435527
vt 0.947373 0.026613
vt 0.947373 0.834462
vt 0.944935 0.834462
vt 0.944935 0.042227
vt 0.947373 0.818884
vt 0.944935 0.818884
vt 0.922652 0.842470
vt 0.915708 0.444614
vt 0.922652 0.444595
vt 0.829057 0.435649
vt 0.836428 0.857956
vt 0.829057 0.857976
vt 0.843799 0.857905
vt 0.836428 0.435629
vt 0.915708 0.842489
vt 0.947373 0.039175
vt 0.947373 0.042180
vt 0.944935 0.039218
vt 0.947373 0.036574
vt 0.944935 0.821891
vt 0.947373 0.821891
vt 0.944935 0.824494
vt 0.894912 0.448062
vt 0.895740 0.445607
vt 0.897740 0.444590
vt 0.944935 0.851367
vt 0.947373 0.840029
vt 0.947373 0.851367
vt 0.947373 0.021051
vt 0.944935 0.009722
vt 0.947373 0.009722
vt 0.944935 0.026638
vt 0.944935 0.021068
vt 0.933738 0.023745
vt 0.929658 0.441085
vt 0.929658 0.023745
vt 0.929658 0.508802
vt 0.933738 0.507035
vt 0.933738 0.508802
vt 0.929658 0.507035
vt 0.933738 0.505342
vt 0.933738 0.491326
vt 0.929658 0.492794
vt 0.929658 0.491326
vt 0.933738 0.492794
vt 0.929658 0.494345
vt 0.929658 0.505342
vt 0.933738 0.494345
vt 0.035854 0.228799
vt 0.042574 0.298375
vt 0.033734 0.298164
vt 0.953609 0.446627
vt 0.956062 0.480018
vt 0.953607 0.480030
vt 0.675903 0.210180
vt 0.691341 0.198622
vt 0.691302 0.210239
vt 0.953605 0.510221
vt 0.956060 0.500093
vt 0.956060 0.510207
vt 0.953606 0.500105
vt 0.956061 0.495072
vt 0.953606 0.495084
vt 0.956061 0.489752
vt 0.524293 0.746909
vt 0.527454 0.776938
vt 0.524293 0.776938
vt 0.147640 0.019498
vt 0.689964 0.052934
vt 0.141536 0.049710
vt 0.736066 0.047796
vt 0.735499 0.011283
vt 0.740032 0.049215
vt 0.976783 0.478446
vt 0.975316 0.029590
vt 0.976783 0.029590
vt 0.993470 0.098379
vt 0.988493 0.836226
vt 0.988493 0.098379
vt 0.101299 0.204618
vt 0.079640 0.220440
vt 0.079686 0.205056
vt 0.062796 0.205484
vt 0.048514 0.179579
vt 0.062382 0.194256
vt 0.049302 0.194885
vt 0.724452 0.012744
vt 0.714445 0.049696
vt 0.709985 0.014925
vt 0.695950 0.017150
vt 0.988493 0.850065
vt 0.993470 0.869432
vt 0.988493 0.869432
vt 0.993470 0.886078
vt 0.988493 0.886078
vt 0.078043 0.137152
vt 0.100458 0.015766
vt 0.090269 0.138170
vt 0.988493 0.897391
vt 0.993470 0.897391
vt 0.953604 0.520728
vt 0.956059 0.520713
vt 0.956058 0.533177
vt 0.953604 0.527782
vt 0.956059 0.527767
vt 0.953603 0.541153
vt 0.956058 0.541137
vt 0.953602 0.550415
vt 0.956057 0.550398
vt 0.527454 0.788450
vt 0.524293 0.788450
vt 0.524293 0.798602
vt 0.933738 0.009774
vt 0.929658 0.009774
vt 0.527454 0.735397
vt 0.527454 0.746909
vt 0.524293 0.725245
vt 0.527454 0.725245
vt 0.524293 0.711743
vt 0.527454 0.711743
vt 0.527454 0.691434
vt 0.929658 0.469843
vt 0.751993 0.373768
vt 0.736297 0.453043
vt 0.733787 0.389634
vt 0.933738 0.463634
vt 0.933738 0.469843
vt 0.929658 0.463634
vt 0.933738 0.456441
vt 0.929658 0.448948
vt 0.933738 0.448948
vt 0.933738 0.441085
vt 0.953574 0.916958
vt 0.956033 0.914350
vt 0.956033 0.916914
vt 0.137836 0.050922
vt 0.142764 0.019134
vt 0.144216 0.019245
vt 0.953604 0.525691
vt 0.956059 0.525677
vt 0.050436 0.221384
vt 0.045543 0.206311
vt 0.049793 0.206116
vt 0.993470 0.088974
vt 0.988493 0.093330
vt 0.988493 0.088974
vt 0.993470 0.093330
vt 0.993470 0.906695
vt 0.988493 0.901762
vt 0.993470 0.901762
vt 0.976783 0.490372
vt 0.975316 0.483604
vt 0.976783 0.483604
vt 0.136074 0.054386
vt 0.138790 0.018832
vt 0.011967 0.662107
vt 0.008697 0.660752
vt 0.007342 0.657482
vt 0.976783 0.023869
vt 0.975316 0.016699
vt 0.976783 0.016699
vt 0.613485 0.230505
vt 0.613079 0.221770
vt 0.617307 0.232053
vt 0.993470 0.844704
vt 0.988493 0.844704
vt 0.115702 0.213894
vt 0.108953 0.223146
vt 0.109355 0.210604
vt 0.107035 0.204211
vt 0.100909 0.222483
vt 0.993470 0.836226
vt 0.988493 0.841159
vt 0.609235 0.223201
vt 0.115084 0.223285
vt 0.615362 0.197114
vt 0.619202 0.209472
vt 0.614909 0.209401
vt 0.613457 0.205661
vt 0.614730 0.218072
vt 0.975316 0.495529
vt 0.976783 0.492528
vt 0.976783 0.495529
vt 0.975316 0.492528
vt 0.975316 0.481447
vt 0.975316 0.478446
vt 0.976783 0.481447
vt 0.976783 0.026519
vt 0.975316 0.026519
vt 0.976783 0.010977
vt 0.975316 0.014049
vt 0.975316 0.010977
vt 0.976783 0.014049
vt 0.976783 0.944385
vt 0.993470 0.841159
vt 0.590285 0.741701
vt 0.602555 0.753888
vt 0.586689 0.753633
vt 0.599602 0.741699
vt 0.616556 0.746008
vt 0.607628 0.736988
vt 0.624639 0.732064
vt 0.612535 0.719558
vt 0.624567 0.716127
vt 0.607928 0.711379
vt 0.616559 0.702456
vt 0.599803 0.706640
vt 0.602938 0.694691
vt 0.587157 0.694691
vt 0.590360 0.706725
vt 0.573570 0.702552
vt 0.582219 0.711296
vt 0.565690 0.715999
vt 0.577623 0.728802
vt 0.565529 0.731724
vt 0.582233 0.736975
vt 0.573164 0.745490
vt 0.966708 0.075599
vt 0.971527 0.009722
vt 0.971527 0.075599
vt 0.729027 0.198688
vt 0.729013 0.210302
vt 0.663129 0.210095
vt 0.675979 0.198549
vt 0.645277 0.209905
vt 0.663257 0.198433
vt 0.736420 0.625118
vt 0.751788 0.491325
vt 0.751788 0.625118
vt 0.663077 0.306796
vt 0.645162 0.218591
vt 0.663065 0.218712
vt 0.729005 0.306652
vt 0.691279 0.218803
vt 0.729005 0.218859
vt 0.051995 0.625118
vt 0.059603 0.491326
vt 0.059602 0.625118
vt 0.619676 0.197331
vt 0.645527 0.198132
vt 0.069473 0.625118
vt 0.079455 0.491326
vt 0.079455 0.625118
vt 0.017368 0.493254
vt 0.019129 0.491890
vt 0.021159 0.491325
vt 0.953575 0.914394
vt 0.956033 0.912267
vt 0.009339 0.229391
vt 0.007622 0.297504
vt 0.066890 0.136224
vt 0.041064 0.010822
vt 0.077079 0.013820
vt 0.953575 0.912311
vt 0.956033 0.909852
vt 0.114518 0.016937
vt 0.104328 0.139340
vt 0.691286 0.306710
vt 0.675863 0.218762
vt 0.953575 0.909896
vt 0.956057 0.557016
vt 0.019721 0.132297
vt 0.030874 0.133226
vt 0.744383 0.218868
vt 0.744383 0.306642
vt 0.757107 0.218874
vt 0.757108 0.306636
vt 0.131704 0.106017
vt 0.609599 0.204121
vt 0.613733 0.197039
vt 0.106463 0.223079
vt 0.953602 0.557033
vt 0.956057 0.554657
vt 0.953602 0.554674
vt 0.956057 0.552962
vt 0.953602 0.552979
vt 0.107145 0.177416
vt 0.109107 0.188551
vt 0.106867 0.193894
vt 0.109264 0.177436
vt 0.114363 0.186354
vt 0.114418 0.177507
vt 0.685899 0.018549
vt 0.694045 0.052399
vt 0.689817 0.017997
vt 0.695738 0.052165
vt 0.691445 0.017784
vt 0.700309 0.051520
vt 0.731763 0.011759
vt 0.728810 0.048454
vt 0.089998 0.491326
vt 0.089998 0.625118
vt 0.044233 0.179826
vt 0.034275 0.194857
vt 0.033470 0.180496
vt 0.045037 0.195094
vt 0.034830 0.206014
vt 0.063223 0.220327
vt 0.079524 0.193717
vt 0.061696 0.178804
vt 0.079060 0.178013
vt 0.101282 0.177458
vt 0.101330 0.193693
vt 0.008173 0.204167
vt 0.009980 0.192977
vt 0.016130 0.184496
vt 0.024998 0.181005
vt 0.744808 0.009987
vt 0.933738 0.575780
vt 0.767523 0.016648
vt 0.760684 0.010320
vt 0.752284 0.008876
vt 0.757112 0.210321
vt 0.744397 0.198700
vt 0.757119 0.198708
vt 0.744388 0.210314
vt 0.737491 0.492398
vt 0.757053 0.478300
vt 0.757629 0.491521
vt 0.736694 0.465158
vt 0.756657 0.468628
vt 0.675872 0.306749
vt 0.088232 0.014748
vt 0.618832 0.235851
vt 0.645175 0.306896
vt 0.069473 0.491326
vt 0.007495 0.131279
vt 0.029910 0.009893
vt 0.619028 0.218183
vt 0.988493 0.019128
vt 0.009211 0.224644
vt 0.035714 0.224019
vt 0.956062 0.482377
vt 0.953607 0.482389
vt 0.771050 0.026075
vt 0.774068 0.044375
vt 0.045046 0.228597
vt 0.953606 0.489763
vt 0.742022 0.053426
vt 0.774752 0.048777
vt 0.958796 0.100722
vt 0.964025 0.856637
vt 0.958796 0.856637
vt 0.933738 0.577546
vt 0.929658 0.575780
vt 0.933738 0.579240
vt 0.929658 0.577546
vt 0.929658 0.591788
vt 0.933738 0.593256
vt 0.929658 0.593256
vt 0.929658 0.590236
vt 0.933738 0.591788
vt 0.933738 0.590236
vt 0.929658 0.579240
vt 0.691348 0.326889
vt 0.675911 0.315332
vt 0.691309 0.315273
vt 0.956065 0.426545
vt 0.953611 0.416437
vt 0.956066 0.416430
vt 0.956065 0.431566
vt 0.953611 0.426552
vt 0.956065 0.436886
vt 0.953610 0.431573
vt 0.518457 0.748045
vt 0.522429 0.715159
vt 0.522429 0.748045
vt 0.685318 0.153018
vt 0.137484 0.142222
vt 0.136298 0.111488
vt 0.759554 0.186894
vt 0.737660 0.137605
vt 0.742142 0.130446
vt 0.977332 0.924443
vt 0.978799 0.475623
vt 0.978799 0.924443
vt 0.966708 0.142064
vt 0.971527 0.837978
vt 0.966708 0.837978
vt 0.097869 0.320375
vt 0.076693 0.305472
vt 0.097326 0.303780
vt 0.060461 0.320271
vt 0.076928 0.320379
vt 0.060318 0.331238
vt 0.047236 0.345915
vt 0.047603 0.330981
vt 0.743562 0.191772
vt 0.715169 0.152901
vt 0.729174 0.145394
vt 0.699751 0.195125
vt 0.721009 0.194947
vt 0.966708 0.129011
vt 0.971527 0.110745
vt 0.971527 0.129011
vt 0.966708 0.110745
vt 0.971527 0.095045
vt 0.966708 0.084375
vt 0.966708 0.095045
vt 0.953612 0.405930
vt 0.956067 0.405924
vt 0.956068 0.393460
vt 0.953613 0.398876
vt 0.953613 0.393466
vt 0.953614 0.385505
vt 0.956068 0.385500
vt 0.953614 0.376243
vt 0.956069 0.376239
vt 0.518457 0.715159
vt 0.522429 0.702552
vt 0.518457 0.691434
vt 0.518457 0.702552
vt 0.964025 0.881941
vt 0.958796 0.881941
vt 0.522429 0.760652
vt 0.518457 0.771770
vt 0.518457 0.760652
vt 0.522429 0.771770
vt 0.518457 0.786557
vt 0.522429 0.808797
vt 0.522429 0.786557
vt 0.964025 0.009722
vt 0.958796 0.048633
vt 0.958796 0.009722
vt 0.964025 0.059879
vt 0.964025 0.048633
vt 0.964025 0.072908
vt 0.958796 0.059879
vt 0.958796 0.086480
vt 0.958796 0.072908
vt 0.964025 0.086480
vt 0.956093 0.012286
vt 0.953640 0.009722
vt 0.956094 0.009722
vt 0.132538 0.141784
vt 0.132863 0.109701
vt 0.133988 0.141912
vt 0.953613 0.400966
vt 0.956067 0.400961
vt 0.043692 0.319932
vt 0.048191 0.305211
vt 0.047844 0.320028
vt 0.993470 0.014772
vt 0.993470 0.019128
vt 0.988493 0.014772
vt 0.993470 0.009722
vt 0.966708 0.080252
vt 0.971527 0.080252
vt 0.977332 0.470466
vt 0.978799 0.463698
vt 0.978799 0.470466
vt 0.128578 0.141434
vt 0.520412 0.662954
vt 0.525012 0.675215
vt 0.520378 0.679839
vt 0.977332 0.937333
vt 0.978799 0.930164
vt 0.978799 0.937333
vt 0.613030 0.303639
vt 0.613405 0.294949
vt 0.617263 0.293328
vt 0.971527 0.134068
vt 0.966708 0.134068
vt 0.111211 0.311270
vt 0.104997 0.302911
vt 0.110032 0.302308
vt 0.103418 0.320573
vt 0.102929 0.303133
vt 0.966708 0.137411
vt 0.971527 0.142064
vt 0.609187 0.302203
vt 0.619158 0.315986
vt 0.615287 0.328384
vt 0.614850 0.316051
vt 0.613387 0.319802
vt 0.613652 0.328459
vt 0.614685 0.307352
vt 0.978799 0.461542
vt 0.977332 0.458541
vt 0.978799 0.458541
vt 0.977332 0.461542
vt 0.977332 0.472623
vt 0.977332 0.475623
vt 0.978799 0.472623
vt 0.978799 0.927514
vt 0.977332 0.927514
vt 0.977332 0.939983
vt 0.978799 0.943054
vt 0.977332 0.943054
vt 0.978799 0.939983
vt 0.978799 0.009722
vt 0.971527 0.137411
vt 0.587056 0.757014
vt 0.582351 0.773758
vt 0.573308 0.765100
vt 0.599828 0.769249
vt 0.590495 0.769122
vt 0.617042 0.765275
vt 0.603196 0.757014
vt 0.624715 0.779175
vt 0.607922 0.773925
vt 0.624480 0.794934
vt 0.612566 0.782098
vt 0.607941 0.799570
vt 0.612620 0.791461
vt 0.602961 0.816115
vt 0.616544 0.808332
vt 0.587236 0.816063
vt 0.599807 0.804103
vt 0.573679 0.808308
vt 0.590388 0.804155
vt 0.577680 0.791243
vt 0.582280 0.799418
vt 0.565709 0.794711
vt 0.577645 0.781857
vt 0.565529 0.778931
vt 0.729028 0.326822
vt 0.729014 0.315209
vt 0.675986 0.326963
vt 0.663137 0.315412
vt 0.663262 0.327079
vt 0.645278 0.315590
vt 0.619618 0.328170
vt 0.645522 0.327377
vt 0.956093 0.014369
vt 0.953640 0.012286
vt 0.956093 0.016784
vt 0.953640 0.014369
vt 0.956069 0.369621
vt 0.953640 0.016784
vt 0.609513 0.321342
vt 0.609658 0.328723
vt 0.105574 0.314230
vt 0.956069 0.371980
vt 0.953615 0.369625
vt 0.956069 0.373675
vt 0.953615 0.371984
vt 0.953615 0.373680
vt 0.105746 0.336093
vt 0.103854 0.347079
vt 0.103507 0.330799
vt 0.110958 0.338256
vt 0.105939 0.347060
vt 0.111014 0.347023
vt 0.690290 0.153355
vt 0.687115 0.194977
vt 0.692305 0.153499
vt 0.692002 0.195077
vt 0.697688 0.153854
vt 0.694004 0.195046
vt 0.754497 0.188535
vt 0.956067 0.398870
vt 0.043056 0.345802
vt 0.032886 0.331386
vt 0.043436 0.330882
vt 0.033171 0.320449
vt 0.060591 0.305512
vt 0.060029 0.346256
vt 0.076954 0.331399
vt 0.076740 0.346642
vt 0.098111 0.347021
vt 0.098075 0.331071
vt 0.006877 0.322751
vt 0.008949 0.333799
vt 0.015261 0.342033
vt 0.024124 0.345241
vt 0.032490 0.345490
vt 0.772063 0.182716
vt 0.796198 0.161347
vt 0.791006 0.173114
vt 0.744397 0.326809
vt 0.757112 0.315189
vt 0.757119 0.326801
vt 0.744388 0.315196
vt 0.733028 0.353367
vt 0.751708 0.364857
vt 0.733531 0.378235
vt 0.083271 0.485064
vt 0.095933 0.353280
vt 0.095128 0.485136
vt 0.071909 0.484995
vt 0.084076 0.353208
vt 0.061284 0.484930
vt 0.072714 0.353138
vt 0.051214 0.484868
vt 0.062089 0.353073
vt 0.618998 0.307245
vt 0.618801 0.289490
vt 0.007495 0.302228
vt 0.033627 0.302900
vt 0.007350 0.470637
vt 0.005830 0.466039
vt 0.020824 0.484683
vt 0.044121 0.303135
vt 0.956064 0.444260
vt 0.956064 0.446619
vt 0.789026 0.122414
vt 0.795632 0.147180
vt 0.953610 0.444268
vt 0.743931 0.122844
vt 0.787959 0.116828
vt 0.529184 0.691400
vt 0.534204 0.708218
vt 0.529184 0.708218
vt 0.713024 0.523858
vt 0.736420 0.491325
vt 0.142182 0.441208
vt 0.682801 0.445637
vt 0.137364 0.580298
vt 0.685558 0.399081
vt 0.529184 0.856318
vt 0.534204 0.879223
vt 0.529184 0.879223
vt 0.981081 0.044700
vt 0.986222 0.949183
vt 0.981081 0.949183
vt 0.113394 0.592585
vt 0.689054 0.536146
vt 0.696415 0.403490
vt 0.127430 0.412476
vt 0.696316 0.439493
vt 0.701084 0.428463
vt 0.142457 0.397618
vt 0.704188 0.551280
vt 0.699755 0.540578
vt 0.127340 0.426173
vt 0.131646 0.436763
vt 0.137364 0.536146
vt 0.126663 0.540578
vt 0.113394 0.523858
vt 0.122230 0.551280
vt 0.700991 0.414356
vt 0.689054 0.580298
vt 0.699755 0.575865
vt 0.713024 0.592585
vt 0.704188 0.565163
vt 0.131863 0.401944
vt 0.122230 0.565164
vt 0.126663 0.575866
vt 0.529184 0.713127
vt 0.534204 0.710409
vt 0.534204 0.713127
vt 0.529184 0.710409
vt 0.981081 0.967014
vt 0.986222 0.967014
vt 0.981081 0.981387
vt 0.986222 0.009722
vt 0.981081 0.027211
vt 0.981081 0.009722
vt 0.986222 0.027211
vt 0.534204 0.850987
vt 0.529184 0.853652
vt 0.529184 0.850987
vt 0.534204 0.853652
vt 0.503808 0.922801
vt 0.889298 0.009150
vt 0.892658 0.012001
vt 0.891415 0.009774
vt 0.869331 0.842464
vt 0.865611 0.843154
vt 0.862447 0.840466
vt 0.863617 0.842565
vt 0.948844 0.840029
vt 0.486946 0.691400
vt 0.862364 0.012357
vt 0.859014 0.009452
vt 0.861138 0.010103
vt 0.861493 0.431268
vt 0.764526 0.831217
vt 0.767682 0.833954
vt 0.765681 0.833340
vt 0.765347 0.436571
vt 0.943651 0.009797
vt 0.941285 0.840030
vt 0.495320 0.691400
vt 0.832058 0.012357
vt 0.828708 0.009452
vt 0.830832 0.010103
vt 0.831187 0.431267
vt 0.796852 0.831217
vt 0.800008 0.833954
vt 0.798007 0.833340
vt 0.797673 0.436571
vt 0.939963 0.009774
vt 0.937597 0.840030
vt 0.511509 0.922801
vt 0.855118 0.434794
vt 0.858477 0.437645
vt 0.857235 0.435419
vt 0.901820 0.842464
vt 0.898100 0.843154
vt 0.894936 0.840466
vt 0.896106 0.842565
vt 0.944935 0.840029
vt 0.993470 0.850065
vt 0.953603 0.533192
vt 0.527454 0.798602
vt 0.524293 0.735397
vt 0.524293 0.691434
vt 0.929658 0.456441
vt 0.046373 0.223711
vt 0.988493 0.906695
vt 0.975316 0.490372
vt 0.007342 0.649846
vt 0.011967 0.645221
vt 0.008697 0.646576
vt 0.520378 0.645221
vt 0.523651 0.646576
vt 0.525012 0.649846
vt 0.525027 0.657482
vt 0.520412 0.662107
vt 0.523679 0.660752
vt 0.975316 0.023869
vt 0.975316 0.944385
vt 0.612445 0.728952
vt 0.577552 0.719434
vt 0.966708 0.009722
vt 0.051996 0.491326
vt 0.005830 0.510149
vt 0.005830 0.606294
vt 0.021159 0.625118
vt 0.019129 0.624553
vt 0.017368 0.623190
vt 0.007400 0.610950
vt 0.006290 0.608788
vt 0.006290 0.507656
vt 0.007400 0.505494
vt 0.609756 0.196771
vt 0.017685 0.008876
vt 0.964025 0.100722
vt 0.953610 0.436894
vt 0.971527 0.084375
vt 0.522429 0.691434
vt 0.518457 0.808797
vt 0.988493 0.009722
vt 0.977332 0.463698
vt 0.008697 0.678485
vt 0.007342 0.675215
vt 0.011967 0.679839
vt 0.007342 0.667579
vt 0.011967 0.662953
vt 0.008697 0.664308
vt 0.523679 0.664308
vt 0.525027 0.667579
vt 0.523651 0.678485
vt 0.977332 0.930164
vt 0.977332 0.009722
vt 0.781718 0.179723
vt 0.751353 0.352826
vt 0.052019 0.353012
vt 0.006268 0.468499
vt 0.006409 0.371285
vt 0.006877 0.368831
vt 0.007984 0.366706
vt 0.017882 0.354704
vt 0.021629 0.352826
vt 0.019625 0.353371
vt 0.018827 0.484114
vt 0.017100 0.482760
vt 0.534204 0.691400
vt 0.534204 0.856318
vt 0.986222 0.044700
vt 0.986222 0.981387
s 1
usemtl magazin_patron
f 1/1/1 4/2/1 2/3/1
f 26/4/2 28/5/2 27/6/2
f 8/7/3 20/8/4 6/9/3
f 5/10/5 23/11/6 7/12/5
f 13/13/7 5/14/1 9/15/8
f 8/16/9 11/17/10 7/18/9
f 6/9/3 15/19/3 8/7/3
f 5/10/5 11/20/5 9/21/5
f 21/22/11 24/23/12 17/24/13
f 3/25/12 10/26/14 4/27/12
f 2/28/15 16/29/15 1/30/15
f 15/31/16 12/32/17 11/17/10
f 9/15/8 14/33/13 13/13/7
f 21/22/11 28/34/18 26/35/13
f 22/36/19 27/37/20 28/34/18
f 24/23/12 19/38/21 17/24/13
f 25/39/22 18/40/23 19/38/21
f 17/41/1 19/42/1 18/43/1
f 4/44/5 12/45/5 2/46/5
f 12/45/5 9/21/5 11/20/5
f 16/47/3 3/48/3 1/49/3
f 16/47/3 13/50/3 14/51/3
f 29/52/2 32/53/2 31/54/2
f 35/55/24 52/56/1 51/57/1
f 48/58/25 36/59/3 34/60/3
f 51/61/6 33/62/5 35/63/5
f 33/64/2 41/65/26 37/66/27
f 39/67/28 36/68/29 35/55/24
f 43/69/3 34/60/3 36/59/3
f 33/62/5 39/70/5 35/63/5
f 52/71/12 49/72/13 45/73/30
f 38/74/31 31/75/12 32/76/12
f 44/77/15 30/78/15 29/79/15
f 40/80/15 43/81/32 39/67/28
f 37/66/27 42/82/31 38/74/31
f 56/83/33 49/72/13 54/84/34
f 55/85/20 50/86/19 56/83/33
f 47/87/21 52/71/12 45/73/30
f 46/88/35 53/89/36 47/87/21
f 34/90/2 49/91/2 48/92/2
f 32/93/5 40/94/5 38/95/5
f 37/96/5 40/94/5 39/70/5
f 31/97/3 44/98/3 29/99/3
f 44/98/3 41/100/3 43/69/3
f 57/101/1 60/102/1 59/103/1
f 63/104/37 80/105/2 79/106/2
f 76/107/38 64/108/3 62/109/3
f 79/110/39 61/111/5 63/112/5
f 61/113/1 69/114/40 65/115/41
f 67/116/42 64/117/37 63/104/37
f 71/118/3 62/109/3 64/108/3
f 61/111/5 67/119/5 63/112/5
f 80/120/43 77/121/17 73/122/44
f 66/123/45 59/124/43 60/125/43
f 72/126/13 58/127/13 57/128/13
f 68/129/34 71/130/46 67/116/42
f 65/115/41 70/131/43 66/123/45
f 84/132/47 77/121/17 82/133/48
f 83/134/49 78/135/50 84/132/47
f 75/136/51 80/120/43 73/122/44
f 74/137/52 81/138/53 75/136/51
f 62/139/1 77/140/1 76/141/1
f 60/142/5 68/143/5 66/144/5
f 65/145/5 68/143/5 67/119/5
f 59/146/3 72/147/3 57/148/3
f 72/147/3 69/149/3 71/118/3
f 85/150/2 88/151/2 86/152/2
f 110/153/1 112/154/1 111/155/1
f 92/156/3 104/157/54 90/158/3
f 89/159/5 107/160/39 91/161/5
f 97/162/55 89/163/2 93/164/56
f 92/165/57 95/166/58 91/167/59
f 90/158/3 99/168/3 92/156/3
f 89/159/5 95/169/5 93/170/5
f 105/171/15 108/172/60 101/173/15
f 87/174/43 94/175/44 88/176/43
f 86/177/13 100/178/13 85/179/13
f 99/180/61 96/181/14 95/166/58
f 93/164/56 98/182/15 97/162/55
f 105/171/15 112/183/47 110/184/15
f 106/185/62 111/186/49 112/183/47
f 108/172/60 103/187/51 101/173/15
f 109/188/53 102/189/63 103/187/51
f 101/190/2 103/191/2 102/192/2
f 88/193/5 96/194/5 86/195/5
f 96/194/5 93/170/5 95/169/5
f 100/196/3 87/197/3 85/198/3
f 100/196/3 97/199/3 98/200/3
f 462/201/2 480/202/2 461/203/2
f 123/204/13 115/205/64 113/206/13
f 124/207/65 114/208/66 115/205/64
f 117/209/67 121/210/68 119/211/67
f 118/212/69 120/213/70 121/210/68
f 122/214/71 116/215/72 114/208/66
f 282/216/73 352/217/74 456/218/75
f 455/219/15 283/220/15 281/221/15
f 275/222/76 131/223/77 277/224/78
f 144/225/79 141/226/80 139/227/81
f 146/228/82 142/229/83 141/226/80
f 145/230/84 140/231/85 142/229/83
f 131/232/2 128/233/2 125/234/2
f 237/235/15 242/236/15 170/237/15
f 174/238/86 251/239/87 176/240/88
f 187/241/2 207/242/2 193/243/89
f 170/244/1 241/245/59 195/246/1
f 262/247/90 154/248/91 253/249/92
f 154/248/91 255/250/93 253/249/92
f 179/251/94 256/252/95 257/253/96
f 152/254/97 158/255/98 153/256/99
f 158/255/98 151/257/100 153/256/99
f 188/258/59 158/259/1 154/260/1
f 154/260/1 157/261/1 155/262/1
f 312/263/101 137/264/102 311/265/103
f 177/266/104 157/261/1 174/267/105
f 147/268/2 139/227/81 150/269/2
f 152/270/2 179/271/2 175/272/2
f 148/273/2 152/270/2 153/274/2
f 181/275/2 153/274/2 151/276/2
f 125/234/2 129/277/2 127/278/2
f 129/277/2 126/279/2 127/278/2
f 130/280/2 461/203/2 126/281/2
f 131/232/2 138/282/2 136/283/2
f 138/282/2 134/284/2 137/285/2
f 137/285/2 132/286/2 135/287/2
f 132/286/2 167/288/2 135/287/2
f 159/289/2 117/209/67 119/211/67
f 439/290/106 465/291/107 469/292/15
f 159/289/2 164/293/2 163/294/2
f 162/295/2 165/296/2 164/293/2
f 165/296/2 160/297/2 166/298/2
f 166/298/2 480/202/2 463/299/2
f 182/300/2 233/301/2 167/302/2
f 172/303/15 233/304/15 235/305/15
f 252/306/2 150/269/2 251/307/2
f 177/308/108 263/309/109 258/310/110
f 171/311/111 169/312/112 168/313/113
f 172/314/114 195/246/1 169/312/112
f 173/315/115 180/316/116 176/317/117
f 176/317/117 177/266/104 174/267/105
f 184/318/118 204/319/119 186/320/119
f 233/304/15 171/321/15 167/322/15
f 200/323/13 202/324/13 201/325/13
f 194/326/120 201/327/121 190/328/121
f 195/329/13 196/330/13 169/331/13
f 244/332/59 188/258/59 239/333/59
f 187/334/13 240/335/13 189/336/13
f 186/337/13 188/338/122 262/247/90
f 242/339/59 240/340/59 241/245/59
f 193/341/13 241/342/13 187/334/13
f 234/343/13 279/344/13 190/345/13
f 192/346/13 234/343/13 190/345/13
f 194/347/13 169/331/13 196/330/13
f 198/348/1 185/349/123 183/350/29
f 199/351/124 184/318/118 185/349/123
f 187/241/2 205/352/125 203/353/126
f 189/354/127 204/319/119 205/352/125
f 207/242/2 196/355/128 193/243/89
f 208/356/129 194/326/120 196/355/128
f 191/357/1 202/358/130 200/359/131
f 192/360/112 201/327/121 202/358/130
f 191/361/1 198/348/1 183/350/29
f 170/237/15 235/305/15 237/235/15
f 243/362/59 239/333/59 240/340/59
f 210/363/132 211/364/133 209/365/134
f 212/366/135 213/367/136 211/364/133
f 214/368/137 215/369/138 213/367/136
f 215/369/138 218/370/139 217/371/140
f 217/371/140 220/372/141 219/373/142
f 219/373/142 222/374/143 221/375/144
f 222/374/143 223/376/145 221/375/144
f 224/377/146 225/378/147 223/376/145
f 226/379/148 227/380/149 225/378/147
f 227/380/149 230/381/150 229/382/151
f 230/381/150 222/374/143 214/368/137
f 229/382/151 232/383/152 231/384/153
f 231/384/153 210/363/132 209/365/134
f 352/385/154 173/386/115 347/387/155
f 277/224/78 125/388/156 270/389/157
f 273/390/158 133/391/159 275/222/76
f 272/392/160 134/393/161 273/390/158
f 467/394/13 130/395/162 304/396/163
f 448/397/164 271/398/13 274/399/164
f 443/400/5 278/401/5 269/402/5
f 337/403/5 164/404/165 338/405/166
f 272/392/160 182/406/13 132/407/167
f 339/408/168 166/409/169 340/410/170
f 116/411/171 118/412/171 117/413/5
f 234/414/2 235/415/2 233/301/2
f 281/416/172 456/218/75 455/417/172
f 310/418/3 128/419/3 136/420/3
f 236/421/2 237/422/2 235/415/2
f 311/265/103 135/423/15 309/424/15
f 452/425/173 276/426/174 278/401/5
f 238/427/2 250/428/2 237/422/2
f 303/429/175 128/419/3 302/430/3
f 443/400/5 267/431/176 441/432/177
f 441/432/177 265/433/106 439/434/106
f 171/321/15 345/435/15 309/424/15
f 191/436/13 236/437/13 192/346/13
f 189/336/13 239/438/13 186/337/13
f 247/439/2 249/440/2 250/428/2
f 246/441/2 248/442/2 249/440/2
f 245/443/2 151/276/2 248/442/2
f 245/444/13 185/445/13 184/446/13
f 246/447/13 183/448/13 185/445/13
f 247/449/13 191/436/13 183/448/13
f 250/450/15 243/451/15 242/236/15
f 249/452/15 244/453/15 243/451/15
f 248/454/15 156/455/178 244/453/15
f 175/456/179 157/457/180 152/254/97
f 179/271/2 251/307/2 175/272/2
f 340/410/170 463/458/13 468/459/13
f 252/460/181 259/461/182 147/462/183
f 264/463/184 260/464/185 259/461/182
f 179/251/94 264/463/184 252/460/181
f 257/253/96 263/309/109 264/463/184
f 258/310/110 155/465/186 177/308/108
f 257/253/96 255/250/93 258/310/110
f 254/466/187 149/467/188 148/468/189
f 253/249/92 256/252/95 254/466/187
f 181/469/190 254/466/187 148/468/189
f 261/470/191 253/249/92 254/466/187
f 262/247/90 184/446/13 186/337/13
f 261/470/191 245/444/13 184/446/13
f 259/461/182 143/471/192 145/472/193
f 145/472/193 146/473/194 259/461/182
f 259/461/182 146/473/194 144/474/195
f 144/474/195 147/462/183 259/461/182
f 251/239/87 150/475/196 176/240/88
f 287/476/13 123/204/13 113/206/13
f 142/477/197 176/240/88 141/478/198
f 141/478/198 150/475/196 139/479/199
f 266/480/200 127/481/177 126/482/201
f 265/433/106 268/483/202 266/480/200
f 268/483/202 125/388/156 127/481/177
f 267/431/176 270/389/157 268/483/202
f 461/484/15 266/485/200 126/486/201
f 464/487/15 265/488/106 266/485/200
f 450/489/159 274/399/164 276/426/174
f 271/398/13 273/390/158 274/399/164
f 310/418/3 138/490/203 312/263/101
f 274/399/164 275/222/76 276/426/174
f 278/401/5 270/389/157 269/402/5
f 168/491/13 271/398/13 445/492/13
f 338/405/166 165/493/204 339/408/168
f 304/494/163 129/495/205 303/429/175
f 276/426/174 277/224/78 278/401/5
f 272/392/160 280/496/13 279/344/13
f 280/496/13 190/345/13 279/344/13
f 342/497/206 171/311/111 168/313/113
f 194/347/13 280/496/13 168/491/13
f 260/464/185 285/498/172 143/471/192
f 263/309/109 284/499/207 260/464/185
f 281/221/15 286/500/15 285/501/15
f 176/240/88 140/502/208 286/503/209
f 284/499/207 281/416/172 285/498/172
f 284/499/207 178/504/74 282/216/73
f 285/501/15 140/231/85 143/505/85
f 173/506/210 286/503/209 283/507/210
f 140/502/208 176/240/88 142/477/197
f 495/508/1 467/509/1 466/510/1
f 289/511/211 297/512/13 287/476/13
f 288/513/212 298/514/213 289/511/211
f 295/515/214 291/516/215 293/517/215
f 294/518/216 292/519/217 295/515/214
f 290/520/218 296/521/219 288/513/212
f 305/522/77 449/523/76 451/524/78
f 315/525/220 318/526/221 313/527/222
f 316/528/223 320/529/224 315/525/220
f 314/530/225 319/531/226 316/528/223
f 305/532/1 302/533/1 310/534/1
f 416/535/15 411/536/15 344/537/15
f 425/538/87 348/539/86 350/540/227
f 381/541/1 361/542/1 367/543/228
f 415/544/2 344/545/2 369/546/2
f 436/547/229 328/548/230 362/549/231
f 429/550/232 328/548/230 427/551/233
f 430/552/234 353/553/235 431/554/96
f 326/555/236 332/556/237 331/557/238
f 325/558/239 332/556/237 327/559/240
f 362/560/2 332/561/2 330/562/2
f 328/563/2 331/564/2 332/561/2
f 351/565/241 331/564/2 329/566/2
f 313/527/222 321/567/1 324/568/1
f 326/569/1 353/570/1 323/571/1
f 326/569/1 322/572/1 327/573/1
f 327/573/1 355/574/1 325/575/1
f 299/576/1 303/577/1 302/533/1
f 300/578/1 303/577/1 301/579/1
f 466/510/1 304/580/1 300/581/1
f 312/582/1 305/532/1 310/534/1
f 312/582/1 308/583/1 307/584/1
f 311/585/1 306/586/1 308/583/1
f 341/587/1 306/586/1 309/588/1
f 291/589/215 333/590/1 293/591/215
f 338/592/1 333/590/1 337/593/1
f 339/594/1 336/595/1 338/592/1
f 339/594/1 334/596/1 335/597/1
f 340/598/1 495/508/1 334/596/1
f 407/599/1 356/600/1 341/601/1
f 407/602/15 346/603/15 409/604/15
f 324/568/1 426/605/1 425/606/1
f 437/607/109 351/608/108 432/609/108
f 342/497/206 346/610/242 345/611/243
f 343/612/244 344/613/2 346/610/242
f 347/387/155 354/614/245 352/385/154
f 350/615/246 351/565/241 354/614/245
f 378/616/247 358/617/248 360/618/247
f 407/602/15 341/619/15 345/435/15
f 372/620/13 378/621/13 377/622/13
f 375/623/120 368/624/121 364/625/120
f 370/626/13 369/627/13 343/628/13
f 362/560/2 418/629/2 413/630/2
f 361/631/13 414/632/13 415/633/13
f 360/634/13 362/549/231 413/635/13
f 414/636/2 416/637/2 415/544/2
f 367/638/13 415/633/13 369/627/13
f 453/639/13 408/640/13 364/641/13
f 366/642/13 408/640/13 410/643/13
f 343/628/13 368/644/13 370/626/13
f 359/645/249 372/646/2 357/647/2
f 358/617/248 373/648/250 359/645/249
f 379/649/251 361/542/1 377/650/252
f 378/616/247 363/651/253 379/649/251
f 370/652/130 381/541/1 367/543/228
f 368/624/121 382/653/254 370/652/130
f 376/654/255 365/655/2 374/656/89
f 375/623/120 366/657/242 376/654/255
f 372/646/2 365/658/2 357/647/2
f 409/604/15 344/537/15 411/536/15
f 413/630/2 417/659/2 414/636/2
f 385/660/256 384/661/257 383/662/134
f 385/660/256 388/663/258 386/664/259
f 389/665/260 388/663/258 387/666/261
f 391/667/262 390/668/263 389/665/260
f 393/669/264 392/670/265 391/667/262
f 393/669/264 396/671/266 394/672/267
f 397/673/142 396/671/266 395/674/144
f 399/675/140 398/676/268 397/673/142
f 401/677/138 400/678/269 399/675/140
f 401/677/138 404/679/270 402/680/271
f 388/663/258 392/670/265 400/678/269
f 403/681/136 406/682/272 404/679/270
f 405/683/133 384/661/257 406/682/272
f 299/684/156 451/524/78 444/685/157
f 307/686/159 447/687/158 449/523/76
f 308/688/161 446/689/160 447/687/158
f 356/690/13 446/689/160 306/691/167
f 409/692/1 408/693/1 407/599/1
f 411/694/1 410/695/1 409/692/1
f 424/696/1 412/697/1 411/694/1
f 365/698/13 410/643/13 412/699/13
f 363/700/13 413/635/13 414/632/13
f 423/701/1 421/702/1 424/696/1
f 422/703/1 420/704/1 423/701/1
f 325/575/1 419/705/1 422/703/1
f 359/706/13 419/707/13 358/708/13
f 357/709/13 420/710/13 359/706/13
f 365/698/13 421/711/13 357/709/13
f 417/712/15 424/713/15 416/535/15
f 418/714/15 423/715/15 417/712/15
f 330/716/273 422/717/15 418/714/15
f 349/718/274 331/557/238 348/539/86
f 425/606/1 353/570/1 349/719/1
f 426/720/275 433/721/276 438/722/277
f 438/722/277 434/723/278 437/607/109
f 353/553/235 438/722/277 431/554/96
f 431/554/96 437/607/109 432/609/108
f 329/724/279 432/609/108 351/608/108
f 429/550/232 431/554/96 432/609/108
f 323/725/280 428/726/281 322/727/282
f 430/552/234 427/551/233 428/726/281
f 355/728/283 428/726/281 435/729/284
f 435/729/284 427/551/233 436/547/229
f 436/547/229 358/708/13 435/729/284
f 419/707/13 435/729/284 358/708/13
f 433/721/276 317/730/285 434/723/278
f 319/731/286 433/721/276 320/732/287
f 433/721/276 318/733/288 320/732/287
f 318/733/288 433/721/276 321/734/289
f 425/538/87 350/540/227 324/735/290
f 316/736/291 315/737/292 350/540/227
f 315/737/292 324/735/290 350/540/227
f 301/738/177 440/739/200 300/740/201
f 442/741/202 439/434/106 440/739/200
f 299/684/156 442/741/202 301/738/177
f 444/685/157 441/432/177 442/741/202
f 466/742/15 440/743/200 470/744/15
f 470/744/15 439/290/106 469/292/15
f 447/687/158 445/492/13 448/397/164
f 449/523/76 448/397/164 450/489/159
f 444/685/157 452/425/173 443/400/5
f 160/745/293 495/746/15 480/747/15
f 161/748/294 334/749/295 160/745/293
f 162/750/296 335/751/297 161/748/294
f 159/752/298 336/753/299 162/750/296
f 451/524/78 450/489/159 452/425/173
f 454/754/13 446/689/160 453/639/13
f 364/641/13 454/754/13 453/639/13
f 368/644/13 342/755/13 454/754/13
f 434/723/278 459/756/172 458/757/300
f 122/758/3 123/759/3 119/760/3
f 437/607/109 458/757/300 354/761/301
f 455/219/15 460/762/15 457/763/15
f 350/540/227 460/764/209 314/765/302
f 455/417/172 458/757/300 459/756/172
f 458/757/300 352/217/74 354/761/301
f 459/766/15 314/530/225 460/762/15
f 347/767/210 460/764/209 350/540/227
f 314/765/302 316/736/291 350/540/227
f 347/767/210 283/507/210 457/768/210
f 490/769/303 472/770/304 474/771/305
f 476/772/13 462/773/13 467/394/13
f 461/484/15 479/774/15 471/775/15
f 467/394/13 468/459/13 498/776/13
f 470/744/15 487/777/15 466/742/15
f 483/778/306 494/779/307 497/780/307
f 498/781/126 487/782/89 489/783/89
f 499/784/13 468/459/13 463/458/13
f 463/458/13 462/773/13 475/785/13
f 469/292/15 488/786/15 470/744/15
f 494/787/15 480/747/15 495/746/15
f 464/487/15 471/775/15 473/788/15
f 465/291/107 473/788/15 472/789/15
f 466/742/15 493/790/15 495/746/15
f 474/791/13 477/792/13 476/772/13
f 477/792/13 475/785/13 476/772/13
f 478/793/15 481/794/15 480/747/15
f 481/794/15 479/774/15 480/747/15
f 482/795/13 485/796/13 484/797/13
f 485/796/13 483/798/13 484/797/13
f 486/799/15 465/291/107 472/789/15
f 489/800/13 492/801/13 491/802/13
f 492/801/13 490/803/13 491/802/13
f 493/790/15 496/804/15 495/746/15
f 496/804/15 494/787/15 495/746/15
f 497/805/13 500/806/13 499/784/13
f 500/806/13 498/776/13 499/784/13
f 475/807/228 473/808/114 471/809/228
f 477/810/112 472/770/304 473/808/114
f 487/782/89 492/811/244 489/783/89
f 488/812/242 490/813/303 492/811/244
f 494/814/307 500/815/308 497/816/307
f 496/817/309 498/781/126 500/815/308
f 479/818/252 485/819/310 482/820/252
f 481/821/311 483/778/306 485/819/310
f 475/807/228 479/818/252 482/820/252
f 1/1/1 3/822/1 4/2/1
f 27/6/2 8/16/9 26/4/2
f 8/16/9 7/18/9 26/4/2
f 7/18/9 23/823/2 24/824/2
f 23/823/2 25/825/2 24/824/2
f 24/824/2 26/4/2 7/18/9
f 8/7/3 27/37/20 20/8/4
f 5/10/5 18/40/23 23/11/6
f 13/13/7 6/826/1 5/14/1
f 8/16/9 15/31/16 11/17/10
f 6/9/3 13/50/3 15/19/3
f 5/10/5 7/12/5 11/20/5
f 21/22/11 26/35/13 24/23/12
f 3/25/12 14/33/13 10/26/14
f 2/28/15 12/32/17 16/29/15
f 15/31/16 16/29/15 12/32/17
f 9/15/8 10/26/14 14/33/13
f 21/22/11 22/36/19 28/34/18
f 22/36/19 20/8/4 27/37/20
f 24/23/12 25/39/22 19/38/21
f 25/39/22 23/11/6 18/40/23
f 18/43/1 5/14/1 17/41/1
f 5/14/1 6/826/1 17/41/1
f 6/826/1 20/827/1 21/828/1
f 20/827/1 22/829/1 21/828/1
f 21/828/1 17/41/1 6/826/1
f 4/44/5 10/830/5 12/45/5
f 12/45/5 10/830/5 9/21/5
f 16/47/3 14/51/3 3/48/3
f 16/47/3 15/19/3 13/50/3
f 29/52/2 30/831/2 32/53/2
f 35/55/24 36/68/29 54/832/1
f 36/68/29 55/833/1 54/832/1
f 55/833/1 56/834/1 54/832/1
f 54/832/1 52/56/1 35/55/24
f 52/56/1 53/835/1 51/57/1
f 48/58/25 55/85/20 36/59/3
f 51/61/6 46/88/35 33/62/5
f 33/64/2 34/90/2 41/65/26
f 39/67/28 43/81/32 36/68/29
f 43/69/3 41/100/3 34/60/3
f 33/62/5 37/96/5 39/70/5
f 52/71/12 54/84/34 49/72/13
f 38/74/31 42/82/31 31/75/12
f 44/77/15 40/80/15 30/78/15
f 40/80/15 44/77/15 43/81/32
f 37/66/27 41/65/26 42/82/31
f 56/83/33 50/86/19 49/72/13
f 55/85/20 48/58/25 50/86/19
f 47/87/21 53/89/36 52/71/12
f 46/88/35 51/61/6 53/89/36
f 34/90/2 33/64/2 45/836/2
f 33/64/2 46/837/2 45/836/2
f 46/837/2 47/838/2 45/836/2
f 45/836/2 49/91/2 34/90/2
f 49/91/2 50/839/2 48/92/2
f 32/93/5 30/840/5 40/94/5
f 37/96/5 38/95/5 40/94/5
f 31/97/3 42/841/3 44/98/3
f 44/98/3 42/841/3 41/100/3
f 57/101/1 58/842/1 60/102/1
f 63/104/37 64/117/37 82/843/2
f 64/117/37 83/844/2 82/843/2
f 83/844/2 84/845/2 82/843/2
f 82/843/2 80/105/2 63/104/37
f 80/105/2 81/846/2 79/106/2
f 76/107/38 83/134/49 64/108/3
f 79/110/39 74/137/52 61/111/5
f 61/113/1 62/139/1 69/114/40
f 67/116/42 71/130/46 64/117/37
f 71/118/3 69/149/3 62/109/3
f 61/111/5 65/145/5 67/119/5
f 80/120/43 82/133/48 77/121/17
f 66/123/45 70/131/43 59/124/43
f 72/126/13 68/129/34 58/127/13
f 68/129/34 72/126/13 71/130/46
f 65/115/41 69/114/40 70/131/43
f 84/132/47 78/135/50 77/121/17
f 83/134/49 76/107/38 78/135/50
f 75/136/51 81/138/53 80/120/43
f 74/137/52 79/110/39 81/138/53
f 62/139/1 61/113/1 73/847/1
f 61/113/1 74/848/1 73/847/1
f 74/848/1 75/849/1 73/847/1
f 73/847/1 77/140/1 62/139/1
f 77/140/1 78/850/1 76/141/1
f 60/142/5 58/851/5 68/143/5
f 65/145/5 66/144/5 68/143/5
f 59/146/3 70/852/3 72/147/3
f 72/147/3 70/852/3 69/149/3
f 85/150/2 87/853/2 88/151/2
f 111/155/1 92/165/57 110/153/1
f 92/165/57 91/167/59 110/153/1
f 91/167/59 107/854/1 108/855/1
f 107/854/1 109/856/1 108/855/1
f 108/855/1 110/153/1 91/167/59
f 92/156/3 111/186/49 104/157/54
f 89/159/5 102/189/63 107/160/39
f 97/162/55 90/857/2 89/163/2
f 92/165/57 99/180/61 95/166/58
f 90/158/3 97/199/3 99/168/3
f 89/159/5 91/161/5 95/169/5
f 105/171/15 110/184/15 108/172/60
f 87/174/43 98/182/15 94/175/44
f 86/177/13 96/181/14 100/178/13
f 99/180/61 100/178/13 96/181/14
f 93/164/56 94/175/44 98/182/15
f 105/171/15 106/185/62 112/183/47
f 106/185/62 104/157/54 111/186/49
f 108/172/60 109/188/53 103/187/51
f 109/188/53 107/160/39 102/189/63
f 102/192/2 89/163/2 101/190/2
f 89/163/2 90/857/2 101/190/2
f 90/857/2 104/858/2 105/859/2
f 104/858/2 106/860/2 105/859/2
f 105/859/2 101/190/2 90/857/2
f 88/193/5 94/861/5 96/194/5
f 96/194/5 94/861/5 93/170/5
f 100/196/3 98/200/3 87/197/3
f 100/196/3 99/168/3 97/199/3
f 462/201/2 463/299/2 480/202/2
f 123/204/13 124/207/65 115/205/64
f 124/207/65 122/214/71 114/208/66
f 117/209/67 118/212/69 121/210/68
f 118/212/69 116/215/72 120/213/70
f 122/214/71 120/213/70 116/215/72
f 282/216/73 178/504/74 352/217/74
f 455/219/15 457/763/15 283/220/15
f 275/222/76 133/391/159 131/223/77
f 144/225/79 146/228/82 141/226/80
f 146/228/82 145/230/84 142/229/83
f 145/230/84 143/505/85 140/231/85
f 131/232/2 136/283/2 128/233/2
f 237/235/15 250/450/15 242/236/15
f 174/238/86 175/456/179 251/239/87
f 187/241/2 203/353/126 207/242/2
f 170/244/1 242/339/59 241/245/59
f 262/247/90 188/338/122 154/248/91
f 154/248/91 155/465/186 255/250/93
f 179/251/94 149/467/188 256/252/95
f 152/254/97 157/457/180 158/255/98
f 158/255/98 156/455/178 151/257/100
f 188/258/59 156/862/59 158/259/1
f 154/260/1 158/259/1 157/261/1
f 312/263/101 138/490/203 137/264/102
f 177/266/104 155/262/1 157/261/1
f 147/268/2 144/225/79 139/227/81
f 152/270/2 149/863/2 179/271/2
f 148/273/2 149/863/2 152/270/2
f 181/275/2 148/273/2 153/274/2
f 125/234/2 128/233/2 129/277/2
f 129/277/2 130/864/2 126/279/2
f 130/280/2 462/201/2 461/203/2
f 131/232/2 133/865/2 138/282/2
f 138/282/2 133/865/2 134/284/2
f 137/285/2 134/284/2 132/286/2
f 132/286/2 182/866/2 167/288/2
f 159/289/2 163/294/2 117/209/67
f 439/290/106 265/488/106 465/291/107
f 159/289/2 162/295/2 164/293/2
f 162/295/2 161/867/2 165/296/2
f 165/296/2 161/867/2 160/297/2
f 166/298/2 160/297/2 480/202/2
f 182/300/2 234/414/2 233/301/2
f 172/303/15 171/321/15 233/304/15
f 252/306/2 147/268/2 150/269/2
f 177/308/108 180/868/312 263/309/109
f 171/311/111 172/314/114 169/312/112
f 172/314/114 170/244/1 195/246/1
f 173/315/115 178/869/313 180/316/116
f 176/317/117 180/316/116 177/266/104
f 184/318/118 197/870/118 204/319/119
f 201/325/13 206/871/13 207/872/13
f 206/871/13 208/873/13 207/872/13
f 207/872/13 203/874/13 200/323/13
f 201/325/13 207/872/13 200/323/13
f 203/874/13 205/875/13 204/876/13
f 204/876/13 197/877/13 198/878/13
f 197/877/13 199/879/13 198/878/13
f 204/876/13 198/878/13 203/874/13
f 198/878/13 200/323/13 203/874/13
f 194/326/120 206/880/120 201/327/121
f 195/329/13 193/341/13 196/330/13
f 244/332/59 156/862/59 188/258/59
f 187/334/13 241/342/13 240/335/13
f 186/337/13 239/438/13 188/338/122
f 242/339/59 243/362/59 240/340/59
f 193/341/13 195/329/13 241/342/13
f 234/343/13 182/406/13 279/344/13
f 192/346/13 236/437/13 234/343/13
f 194/347/13 168/491/13 169/331/13
f 198/348/1 199/351/124 185/349/123
f 199/351/124 197/870/118 184/318/118
f 187/241/2 189/354/127 205/352/125
f 189/354/127 186/320/119 204/319/119
f 207/242/2 208/356/129 196/355/128
f 208/356/129 206/880/120 194/326/120
f 191/357/1 192/360/112 202/358/130
f 192/360/112 190/328/121 201/327/121
f 191/361/1 200/881/131 198/348/1
f 170/237/15 172/303/15 235/305/15
f 243/362/59 244/332/59 239/333/59
f 210/363/132 212/366/135 211/364/133
f 212/366/135 214/368/137 213/367/136
f 214/368/137 216/882/314 215/369/138
f 215/369/138 216/882/314 218/370/139
f 217/371/140 218/370/139 220/372/141
f 219/373/142 220/372/141 222/374/143
f 222/374/143 224/377/146 223/376/145
f 224/377/146 226/379/148 225/378/147
f 226/379/148 228/883/315 227/380/149
f 227/380/149 228/883/315 230/381/150
f 214/368/137 212/366/135 210/363/132
f 210/363/132 232/383/152 214/368/137
f 232/383/152 230/381/150 214/368/137
f 230/381/150 228/883/315 226/379/148
f 226/379/148 224/377/146 230/381/150
f 224/377/146 222/374/143 230/381/150
f 222/374/143 220/372/141 218/370/139
f 218/370/139 216/882/314 222/374/143
f 216/882/314 214/368/137 222/374/143
f 229/382/151 230/381/150 232/383/152
f 231/384/153 232/383/152 210/363/132
f 352/385/154 178/884/313 173/386/115
f 277/224/78 131/223/77 125/388/156
f 273/390/158 134/393/161 133/391/159
f 272/392/160 132/407/167 134/393/161
f 467/394/13 462/773/13 130/395/162
f 448/397/164 445/492/13 271/398/13
f 443/400/5 452/425/173 278/401/5
f 337/403/5 163/885/5 164/404/165
f 272/392/160 279/344/13 182/406/13
f 339/408/168 165/493/204 166/409/169
f 117/413/5 163/885/5 113/886/5
f 163/885/5 337/403/5 287/887/5
f 337/403/5 291/888/5 287/887/5
f 291/888/5 292/889/5 290/890/5
f 287/887/5 291/888/5 288/891/5
f 290/890/5 288/891/5 291/888/5
f 288/891/5 289/892/171 287/887/5
f 287/887/5 113/886/5 163/885/5
f 113/886/5 115/893/171 114/894/5
f 117/413/5 114/894/5 116/411/171
f 113/886/5 114/894/5 117/413/5
f 234/414/2 236/421/2 235/415/2
f 281/416/172 282/216/73 456/218/75
f 310/418/3 302/430/3 128/419/3
f 236/421/2 238/427/2 237/422/2
f 311/265/103 137/264/102 135/423/15
f 452/425/173 450/489/159 276/426/174
f 238/427/2 247/439/2 250/428/2
f 303/429/175 129/495/205 128/419/3
f 443/400/5 269/402/5 267/431/176
f 441/432/177 267/431/176 265/433/106
f 345/435/15 341/619/15 309/424/15
f 309/424/15 135/423/15 171/321/15
f 135/423/15 167/322/15 171/321/15
f 191/436/13 238/895/13 236/437/13
f 189/336/13 240/335/13 239/438/13
f 247/439/2 246/441/2 249/440/2
f 246/441/2 245/443/2 248/442/2
f 245/443/2 181/275/2 151/276/2
f 245/444/13 246/447/13 185/445/13
f 246/447/13 247/449/13 183/448/13
f 247/449/13 238/895/13 191/436/13
f 250/450/15 249/452/15 243/451/15
f 249/452/15 248/454/15 244/453/15
f 248/454/15 151/257/100 156/455/178
f 175/456/179 174/238/86 157/457/180
f 179/271/2 252/306/2 251/307/2
f 340/410/170 166/409/169 463/458/13
f 252/460/181 264/463/184 259/461/182
f 264/463/184 263/309/109 260/464/185
f 179/251/94 257/253/96 264/463/184
f 257/253/96 258/310/110 263/309/109
f 258/310/110 255/250/93 155/465/186
f 257/253/96 256/252/95 255/250/93
f 254/466/187 256/252/95 149/467/188
f 253/249/92 255/250/93 256/252/95
f 181/469/190 261/470/191 254/466/187
f 261/470/191 262/247/90 253/249/92
f 262/247/90 261/470/191 184/446/13
f 261/470/191 181/469/190 245/444/13
f 259/461/182 260/464/185 143/471/192
f 287/476/13 297/512/13 123/204/13
f 141/478/198 176/240/88 150/475/196
f 266/480/200 268/483/202 127/481/177
f 265/433/106 267/431/176 268/483/202
f 268/483/202 270/389/157 125/388/156
f 267/431/176 269/402/5 270/389/157
f 461/484/15 464/487/15 266/485/200
f 464/487/15 465/291/107 265/488/106
f 450/489/159 448/397/164 274/399/164
f 271/398/13 272/392/160 273/390/158
f 310/418/3 136/420/3 138/490/203
f 274/399/164 273/390/158 275/222/76
f 278/401/5 277/224/78 270/389/157
f 445/492/13 454/754/13 342/755/13
f 168/491/13 280/496/13 271/398/13
f 445/492/13 342/755/13 168/491/13
f 338/405/166 164/404/165 165/493/204
f 304/494/163 130/896/162 129/495/205
f 276/426/174 275/222/76 277/224/78
f 272/392/160 271/398/13 280/496/13
f 280/496/13 194/347/13 190/345/13
f 342/497/206 345/611/243 171/311/111
f 260/464/185 284/499/207 285/498/172
f 263/309/109 180/868/312 284/499/207
f 281/221/15 283/220/15 286/500/15
f 284/499/207 282/216/73 281/416/172
f 284/499/207 180/868/312 178/504/74
f 285/501/15 286/500/15 140/231/85
f 173/506/210 176/240/88 286/503/209
f 495/508/1 468/897/1 467/509/1
f 289/511/211 298/514/213 297/512/13
f 288/513/212 296/521/219 298/514/213
f 295/515/214 292/519/217 291/516/215
f 294/518/216 290/520/218 292/519/217
f 290/520/218 294/518/216 296/521/219
f 305/522/77 307/686/159 449/523/76
f 315/525/220 320/529/224 318/526/221
f 316/528/223 319/531/226 320/529/224
f 314/530/225 317/898/225 319/531/226
f 305/532/1 299/576/1 302/533/1
f 416/535/15 424/713/15 411/536/15
f 425/538/87 349/718/274 348/539/86
f 381/541/1 377/650/252 361/542/1
f 415/544/2 416/637/2 344/545/2
f 436/547/229 427/551/233 328/548/230
f 429/550/232 329/724/279 328/548/230
f 430/552/234 323/725/280 353/553/235
f 326/555/236 327/559/240 332/556/237
f 325/558/239 330/716/273 332/556/237
f 362/560/2 328/563/2 332/561/2
f 328/563/2 329/566/2 331/564/2
f 351/565/241 348/899/316 331/564/2
f 313/527/222 318/526/221 321/567/1
f 326/569/1 349/719/1 353/570/1
f 326/569/1 323/571/1 322/572/1
f 327/573/1 322/572/1 355/574/1
f 299/576/1 301/579/1 303/577/1
f 300/578/1 304/900/1 303/577/1
f 466/510/1 467/509/1 304/580/1
f 312/582/1 307/584/1 305/532/1
f 312/582/1 311/585/1 308/583/1
f 311/585/1 309/588/1 306/586/1
f 341/587/1 356/901/1 306/586/1
f 291/589/215 337/593/1 333/590/1
f 338/592/1 336/595/1 333/590/1
f 339/594/1 335/597/1 336/595/1
f 339/594/1 340/598/1 334/596/1
f 340/598/1 468/897/1 495/508/1
f 407/599/1 408/693/1 356/600/1
f 407/602/15 345/435/15 346/603/15
f 324/568/1 321/567/1 426/605/1
f 437/607/109 354/761/301 351/608/108
f 342/497/206 343/612/244 346/610/242
f 343/612/244 369/902/2 344/613/2
f 347/387/155 350/615/246 354/614/245
f 350/615/246 348/899/316 351/565/241
f 378/616/247 371/903/248 358/617/248
f 382/904/13 380/905/13 381/906/13
f 380/905/13 375/907/13 374/908/13
f 375/907/13 376/909/13 374/908/13
f 374/908/13 372/620/13 377/622/13
f 372/620/13 373/910/13 371/911/13
f 378/621/13 372/620/13 371/911/13
f 378/621/13 379/912/13 377/622/13
f 377/622/13 381/906/13 374/908/13
f 374/908/13 381/906/13 380/905/13
f 375/623/120 380/913/121 368/624/121
f 370/626/13 367/638/13 369/627/13
f 362/560/2 330/562/2 418/629/2
f 361/631/13 363/700/13 414/632/13
f 360/634/13 436/547/229 362/549/231
f 414/636/2 417/659/2 416/637/2
f 367/638/13 361/631/13 415/633/13
f 453/639/13 356/690/13 408/640/13
f 366/642/13 364/641/13 408/640/13
f 343/628/13 342/755/13 368/644/13
f 359/645/249 373/648/250 372/646/2
f 358/617/248 371/903/248 373/648/250
f 379/649/251 363/651/253 361/542/1
f 378/616/247 360/618/247 363/651/253
f 370/652/130 382/653/254 381/541/1
f 368/624/121 380/913/121 382/653/254
f 376/654/255 366/657/242 365/655/2
f 375/623/120 364/625/120 366/657/242
f 372/646/2 374/914/89 365/658/2
f 409/604/15 346/603/15 344/537/15
f 413/630/2 418/629/2 417/659/2
f 385/660/256 386/664/259 384/661/257
f 385/660/256 387/666/261 388/663/258
f 389/665/260 390/668/263 388/663/258
f 391/667/262 392/670/265 390/668/263
f 393/669/264 394/672/267 392/670/265
f 393/669/264 395/674/144 396/671/266
f 397/673/142 398/676/268 396/671/266
f 399/675/140 400/678/269 398/676/268
f 401/677/138 402/680/271 400/678/269
f 401/677/138 403/681/136 404/679/270
f 384/661/257 386/664/259 388/663/258
f 388/663/258 390/668/263 392/670/265
f 392/670/265 394/672/267 396/671/266
f 396/671/266 398/676/268 392/670/265
f 398/676/268 400/678/269 392/670/265
f 400/678/269 402/680/271 404/679/270
f 404/679/270 406/682/272 400/678/269
f 406/682/272 384/661/257 400/678/269
f 384/661/257 388/663/258 400/678/269
f 403/681/136 405/683/133 406/682/272
f 405/683/133 383/662/134 384/661/257
f 299/684/156 305/522/77 451/524/78
f 307/686/159 308/688/161 447/687/158
f 308/688/161 306/691/167 446/689/160
f 356/690/13 453/639/13 446/689/160
f 409/692/1 410/695/1 408/693/1
f 411/694/1 412/697/1 410/695/1
f 424/696/1 421/702/1 412/697/1
f 365/698/13 366/642/13 410/643/13
f 363/700/13 360/634/13 413/635/13
f 423/701/1 420/704/1 421/702/1
f 422/703/1 419/705/1 420/704/1
f 325/575/1 355/574/1 419/705/1
f 359/706/13 420/710/13 419/707/13
f 357/709/13 421/711/13 420/710/13
f 365/698/13 412/699/13 421/711/13
f 417/712/15 423/715/15 424/713/15
f 418/714/15 422/717/15 423/715/15
f 330/716/273 325/558/239 422/717/15
f 349/718/274 326/555/236 331/557/238
f 425/606/1 426/605/1 353/570/1
f 426/720/275 321/734/289 433/721/276
f 438/722/277 433/721/276 434/723/278
f 353/553/235 426/720/275 438/722/277
f 431/554/96 438/722/277 437/607/109
f 329/724/279 429/550/232 432/609/108
f 429/550/232 430/552/234 431/554/96
f 323/725/280 430/552/234 428/726/281
f 430/552/234 429/550/232 427/551/233
f 355/728/283 322/727/282 428/726/281
f 435/729/284 428/726/281 427/551/233
f 436/547/229 360/634/13 358/708/13
f 419/707/13 355/728/283 435/729/284
f 433/721/276 319/731/286 317/730/285
f 315/737/292 313/915/317 324/735/290
f 301/738/177 442/741/202 440/739/200
f 442/741/202 441/432/177 439/434/106
f 299/684/156 444/685/157 442/741/202
f 444/685/157 443/400/5 441/432/177
f 466/742/15 300/916/201 440/743/200
f 470/744/15 440/743/200 439/290/106
f 447/687/158 446/689/160 445/492/13
f 449/523/76 447/687/158 448/397/164
f 444/685/157 451/524/78 452/425/173
f 160/745/293 334/749/295 495/746/15
f 161/748/294 335/751/297 334/749/295
f 162/750/296 336/753/299 335/751/297
f 159/752/298 333/917/3 336/753/299
f 451/524/78 449/523/76 450/489/159
f 454/754/13 445/492/13 446/689/160
f 364/641/13 368/644/13 454/754/13
f 434/723/278 317/730/285 459/756/172
f 122/758/3 124/918/298 123/759/3
f 123/759/3 297/919/3 159/752/298
f 297/919/3 298/920/3 296/921/3
f 159/752/298 297/919/3 333/917/3
f 296/921/3 294/922/3 293/923/3
f 294/922/3 295/924/3 293/923/3
f 293/923/3 333/917/3 297/919/3
f 293/923/3 297/919/3 296/921/3
f 159/752/298 119/760/3 123/759/3
f 119/760/3 121/925/172 120/926/3
f 122/758/3 119/760/3 120/926/3
f 437/607/109 434/723/278 458/757/300
f 455/219/15 459/766/15 460/762/15
f 455/417/172 456/218/75 458/757/300
f 458/757/300 456/218/75 352/217/74
f 459/766/15 317/898/225 314/530/225
f 347/767/210 457/768/210 460/764/209
f 347/767/210 173/506/210 283/507/210
f 490/769/303 486/927/303 472/770/304
f 467/394/13 491/802/13 476/772/13
f 491/802/13 490/803/13 476/772/13
f 490/803/13 474/791/13 476/772/13
f 461/484/15 480/747/15 479/774/15
f 468/459/13 499/784/13 498/776/13
f 498/776/13 489/800/13 467/394/13
f 489/800/13 491/802/13 467/394/13
f 470/744/15 488/786/15 487/777/15
f 483/778/306 478/928/306 494/779/307
f 498/781/126 493/929/126 487/782/89
f 463/458/13 484/797/13 499/784/13
f 484/797/13 483/798/13 499/784/13
f 483/798/13 497/805/13 499/784/13
f 462/773/13 476/772/13 475/785/13
f 475/785/13 482/795/13 463/458/13
f 482/795/13 484/797/13 463/458/13
f 469/292/15 486/799/15 488/786/15
f 494/787/15 478/793/15 480/747/15
f 464/487/15 461/484/15 471/775/15
f 465/291/107 464/487/15 473/788/15
f 466/742/15 487/777/15 493/790/15
f 486/799/15 469/292/15 465/291/107
f 475/807/228 477/810/112 473/808/114
f 477/810/112 474/771/305 472/770/304
f 487/782/89 488/812/242 492/811/244
f 488/812/242 486/930/303 490/813/303
f 494/814/307 496/817/309 500/815/308
f 496/817/309 493/929/126 498/781/126
f 479/818/252 481/821/311 485/819/310
f 481/821/311 478/928/306 483/778/306
f 475/807/228 471/809/228 479/818/252
